<?xml version="1.0"?>
<svg version="1.1" xmlns="http://www.w3.org/2000/svg" width="450px" height="250px" style=""><path fill="#ffffff" d="M160.75,121.75q0,1.8125-0.3125,2.4375q0,0.6875-0.5625,1.28125t-1.3125,0.65625q-0.125,0.125-1.1875,0.125q-0.875,0-1.125-0.125q-0.375,0.375-1.0625,0.375q-0.25,0-0.75-0.25q-0.375,0.375-1,0.375q-0.3125,0-0.8125-0.25q-0.5,0.0625-1.0625,0.3125t-1.21875,0.625t-1.03125,0.5625q-0.0625,0.25-0.125,0.84375t-0.125,0.84375q-0.25,0.625-0.25,1.8125q0,0.375,0.0625,1.21875t0.0625,1.21875q0,0.75-0.25,1.75q-0.625,2.375-0.625,4.625q0.0625,0.25,0.28125,0.84375t0.21875,0.84375q0,0.5-0.25,0.75q0,0.1875,0.0625,0.59375t0.0625,0.65625q0,0.6875-0.25,1.6875q-0.125,0.5-0.125,1.375q0,0.8125,0.375,2.5625t0.375,2.6875l0.25,0q1.0625,0,1.0625,0.8125q0,0.3125-0.1875,0.5q-0.3125,0.4375-1.125,1q0.25,0.25,0.25,0.5q0,0.0625-0.25,0.5625l0,0.75q0,1.1875-0.25,2.1875q0,3.3125-0.375,4.3125q0.125,0.375,0.125,1.5625q0,1.6875-0.125,2.1875q0.75-0.75,1.5-0.75q0.4375,0,0.4375,0.5l0,0.25q-0.0625,0.25-0.4375,0.5625t-0.9375,0.625t-0.6875,0.4375l0,1.0625q0,2.3125,0.375,2.4375q0.375,0,0.375,0.625q0,0.25-0.125,0.875t-0.125,0.8125q0.125,0.25,0.125,1.125q0,0.625-0.125,0.875q0.25,0.75,0.25,1.9375q0,1.75-0.375,2.6875q-0.125,0.5-0.125,1.8125q0,1.125-0.125,1.75q0.125,0.25,0.125,1.3125q0,0.875-0.125,1.25q0.125,0.25,0.125,0.9375l0,0.375q0.375,1.125,0.375,3.3125q0,1.1875-0.125,1.5625q0,0.0625-0.0625,0.28125t-0.0625,0.34375q0,0.25,0.125,0.84375t0.125,0.84375q0,0.375-0.125,0.625q0.125,0.5,0.125,1.625q0,1.5625-0.125,2.1875q0,0.5625-0.53125,1.125t-1.15625,0.5625l-0.25,0q-0.3125-0.125-1.4375-0.25t-1.375-0.25q-0.125,0-0.375-0.0625t-0.375-0.0625q-0.5,0-1.5625,0.1875t-1.625,0.1875q-0.25-0.0625-0.46875-0.15625t-0.34375-0.09375q-0.25,0-0.5,0.125q-0.875,0-1.25-0.125q-1,0-1.9375,0.375q-0.25,0.125-0.875,0.125q-0.8125,0-1.0625-0.125q-0.3125-0.0625-0.5-0.1875l-0.125-0.0625q-0.0625,0-0.09375,0.03125t-0.125,0.09375t-0.28125,0.125q-0.375,0.125-1.0625,0.125q-0.125-0.125-0.5-0.125q-0.3125,0-0.90625,0.25t-0.96875,0.25q-1.1875,0-2.6875-0.25q-0.5-0.0625-0.9375-0.46875t-0.6875-0.78125t-0.625-1.03125t-0.5625-0.90625q-0.9375-1.875-1.3125-2.4375q-0.0625-0.0625-0.375-0.5t-0.5-0.5625q-0.125,0.125-0.5625,0.125q-0.75,0-0.75-0.5q0-0.4375,0.5-0.75q-0.375-0.4375-2-3.4375q-0.375-0.75-1.6875-1.8125t-1.6875-1.8125q-1.9375-2.75-2.5625-3.8125q-0.5625-0.75-0.75-0.75q-0.125,0-0.46875,0.15625t-0.78125,0.21875q-0.9375,0-0.9375-0.5q0-0.75,0.8125-1.5625q0.375-0.375,0.375-0.5t-0.25-0.3125t-0.375-0.4375t-0.59375-0.65625t-0.59375-0.65625q-0.0625-0.0625-0.25,0l-0.46875,0.15625t-0.40625,0.09375q-0.375,0-0.375-0.625q0.0625-0.375,0.28125-0.46875t0.21875-0.15625t-0.0625-0.21875t-0.0625-0.21875q-0.1875-0.0625-0.5625-0.875q-0.4375-0.5625-1.34375-1.71875t-1.34375-1.71875q-1.8125-2.3125-2.375-4q-0.5625,0.5625-1.1875,0.5625q-0.375,0-0.375-0.5625l0-0.25q0-0.1875,0.40625-0.65625t0.34375-0.59375q-0.5625-0.5625-1-1.4375q-0.9375-0.75-1.9375-2.4375q-0.125-0.0625-0.5-0.1875t-0.375-0.3125q0-0.25,0.125-0.375q-0.0625-0.125-0.4375-0.40625t-0.4375-0.34375q-1-1.3125-1.1875-1.8125q-0.25-0.375-0.625-1.375t-0.625-1.4375q-2.75-4.5625-4.125-5q-0.125,0-0.375-0.46875t-0.53125-1.03125l-0.34375-0.6875q-0.125-0.25-0.53125-0.6875t-0.53125-0.6875q-0.5625-0.5625-1.65625-1.8125t-1.65625-1.8125q0.125,1.4375,0.125,4.375l0,1.8125q0.25-0.125,0.5-0.125t0.25,0.25q0,0.1875-0.375,0.75t-0.375,0.625q-0.125,0.25-0.125,0.8125q0,0.25,0.0625,0.71875t0.0625,0.65625l0,0.5l0,1.1875l0,0.625q0.125,0.25,0.125,0.875q0,0.8125-0.125,1.0625q0.125,0.75,0.125,2.3125q0,1.0625-0.125,3.1875t-0.125,3.1875q0,1.6875,0.125,2.4375q0.5-0.25,0.625-0.25q0.375,0,0.375,0.625q0,1.0625-0.375,1.4375q-0.5,0.5-0.5,1.125q0,0.5-0.125,1q0.25,1,0.25,1.8125q0,0.25-0.0625,0.75t-0.0625,0.5625q0.125,0.25,0.125,1.375q0,1.1875-0.125,1.5625q-0.25,1-0.25,2.8125q0,3.625,1.25,3.9375q0.8125,0.0625,2.46875,0.375t2.53125,0.375q0.5625,0,1.1875,0.4375q0.25-0.125,0.75-0.125q0.125,0,0.375,0.0625t0.375,0.0625t0.40625-0.0625t0.40625-0.0625l0.25,0q0.5,0,2,0.375q1.6875,0.125,1.6875,6.375q0,0.625-0.0625,1.5625t-0.0625,1.125q0.125-0.125,0.5-0.125q0.625,0,0.625,0.5q0,0.375-0.5,0.6875q0.375,0.1875,0.375,0.5q0,0.125-0.34375,0.375t-0.40625,0.375q0,0.125,0.0625,0.4375t0.0625,0.4375q-0.1875,1.4375-1.75,1.4375q-0.4375,0-1.1875-0.25q-2-0.25-2.8125-0.25q-1.9375,0-2.4375-0.25q-0.5625,0.25-1.5,0.28125t-1.3125,0.21875q-1.25,0.625-1.5625,0.625q-0.5,0-0.875-0.375q-0.25,0.25-0.75,0.25q-0.375,0-0.9375-0.1875t-0.875-0.1875q-0.375,0-1.3125-0.25t-1-0.25q-0.4375-0.0625-1.15625,0.15625t-0.96875,0.21875q-0.5625,0-0.8125-0.25q-0.5,0.25-1.25,0.25q-0.5,0-0.625-0.125q-0.125,0.0625-0.6875,0.28125t-0.875,0.21875q-2.625,0-3.875-0.125q-0.75,0.25-1.25,0.25q-0.5625,0-1.65625-0.1875t-1.65625-0.1875l-0.375-0.125l-0.28125-0.09375t-0.15625-0.03125l-0.5,0.25l-0.25,0.125q-0.1875,0-0.59375-0.21875t-0.53125-0.28125q-0.25,0.125-0.625,0.125q-0.25,0-0.8125-0.1875t-0.875-0.1875l-0.25,0q-0.5625,0.375-1.8125,0.375q-1.375,0-2.5625-0.4375t-1.25-1.25q-1.25,0.625-1.5625,0.625q-0.375,0-0.375-0.375l0-0.25q0.0625-0.4375,1.0625-0.9375t1-0.875q-0.625,0.3125-0.6875,0.3125q-0.375,0-0.375-0.6875q0-0.625,0.375-1.75q0.6875-2.75,0.6875-3q-1.125,0.5625-1.3125,0.5625q-0.375-0.1875-0.375-0.6875q0-0.25,0.25-0.5q0.125-0.125,0.46875-0.375t0.625-0.46875t0.34375-0.40625q0-1.1875,0.34375-1.8125t0.84375-0.84375t1.75-0.53125q0.875-0.4375,1.375-0.4375q0.5625,0,0.5625,0.6875l0.125,0q0.125,0,0.90625-0.3125t0.96875-0.25q0.5,0,0.8125,0.3125q0.4375-0.4375,0.875-0.4375l0.25,0q0.1875,0,0.53125-0.0625t0.59375-0.0625q0.1875,0,0.75-0.25t0.9375-0.25t0.375,0.125q-0.25,0-0.25,0.125q0.125,0.125,0.625,0.125l0-0.5q0-1.5625,0.8125-2.9375q0.0625-0.1875,0.1875-1.21875t0.1875-1.46875q-0.0625,0-0.40625,0.25t-0.6875,0.4375t-0.59375,0.1875q-0.3125,0-0.5-0.375q-0.125-0.125-0.125-0.375t0.1875-0.5t0.46875-0.5625t0.34375-0.4375q0.125-0.0625,0.3125-0.21875t0.28125-0.21875t0.25-0.1875t0.21875-0.1875t0.15625-0.1875t0.15625-0.21875t0.09375-0.21875l0.0625-0.25t0.03125-0.25l0-0.375q-0.25-1-0.25-2.5625l0-0.8125q0-0.125-0.0625-0.5625t-0.0625-0.6875q0-0.9375,0.25-1.9375q-0.25-0.75-0.25-1.75q0-0.25,0.0625-0.75t0.0625-0.5625q-0.375-1.5625-0.375-5.25q-0.125,0.125-0.5625,0.125q-1.125,0-1.125-0.625q0-0.3125,0.5-0.625q1.0625-0.4375,1.0625-1.1875l0-0.75l0-0.5q-0.25-1.25-0.25-2.0625q0-0.6875,0.375-3.6875q0-4.0625,0.25-12.3125q0.125-1.5625,0.125-4.625q0-3.1875-0.125-4.875q-0.0625-0.3125-0.34375-1.125t-0.4375-1.46875t-0.15625-1.09375q-0.1875-0.5-0.875-0.5q-0.375,0-1.125,0.25l-0.6875,0q-1.625,0-1.625-0.625q0-0.0625,0.25-0.5625q-0.3125-0.0625-1.125,0.25t-1.1875,0.3125t-0.6875-0.125t-0.4375-0.125q-0.3125,0-0.5625,0.125q-0.125,0.125-0.5,0.125q-0.1875,0-0.375-0.0625t-0.40625-0.15625t-0.34375-0.15625q-0.25,0.25-0.9375,0.25l-0.25,0q-1.5-0.375-1.625-0.5625q-0.8125-0.625-0.8125-4.5625q0-2.3125,0.125-2.8125q-0.125,0.125-0.625,0.125q-0.75,0-0.75-0.5q0-0.1875,0.25-0.4375q1.25-1.25,1.4375-1.75q0-2,1.25-2.8125q0.5625-0.375,1.71875-0.59375t1.46875-0.34375q0.25-0.125,0.6875-0.125q0.5,0,0.625,0.125q0.25-0.25,0.75-0.25l0.25,0q0.3125,0,0.71875,0.0625t0.71875,0.0625q0.25,0,0.75,0.25l0.375,0q0.1875,0,0.625,0.0625t0.6875,0.0625l0.375,0q0.0625,0,0.1875-0.0625t0.1875-0.0625q0.25,0,0.4375,0.0625t0.40625,0.15625t0.40625,0.15625q0.3125,0,0.9375-0.1875t1-0.1875l0.375,0l0.375,0q0.4375,0,0.9375,0.25q0.5-0.25,1.125-0.25l0.25,0l0.25,0q0.375,0,1.09375-0.1875t1.09375-0.1875q0.1875,0,0.6875,0.0625t0.625,0.0625l0.25,0q0.125,0,0.40625-0.0625t0.46875-0.0625l0.25,0q0.1875,0,0.65625-0.0625t0.65625-0.0625q0.5,0,0.75,0.125q0.125,0.125,0.625,0.125q0.25,0,0.9375-0.125t1-0.125l0.375,0q1.0625,0,1.5625,0.125q0.25-0.125,0.75-0.125q0.25,0,0.6875,0.125t0.6875,0.125q0.3125,0.0625,0.8125,0.21875t0.75,0.15625l0.375,0q0.75-0.5,2.3125-0.5l0.25,0q0.25,0.0625,0.65625,0.09375t0.65625,0.09375t0.53125,0.21875t0.46875,0.53125q0.1875,0.3125,0.65625,0.5t0.59375,0.5q0.125,0.125,0.125,0.5l0,0.5l0,0.375q0.4375,0.4375,0.6875,1.1875q0.4375,0.5625,1.21875,1.84375t1.21875,1.84375q1.3125,0.75,2.9375,2.6875q0.4375,0.5,0.75,1.3125q0.25,0.25,0.5,0.25q0.1875,0,0.59375-0.125t0.59375-0.125l0.25,0q0.875,0.1875,0.875,0.625q0,0.6875-0.625,0.875q-0.125,0.125-0.40625,0.28125t-0.46875,0.25t-0.1875,0.28125l0,0.25q0.25,0.5625,1.09375,1.3125t1.09375,1.125q1.1875,1,2.4375,3.3125q1.5-0.75,1.6875-0.75q0.375,0,0.375,0.5l0,0.25q-0.0625,0.5625-0.59375,0.8125t-0.53125,0.4375q0,0.0625,0.25,0.5625q0.3125,0.3125,0.8125,0.9375t0.8125,0.9375q0.8125,0.8125,1.5625,2.0625q0.0625,0,0.125,0.0625t0.125,0.0625q0.1875,0,0.625-0.1875t0.625-0.1875q0.4375,0,0.5625,0.25q0.125,0.125,0.125,0.5q0,0.25-0.28125,0.78125t-0.28125,0.78125l0,0.25q0.5,0.4375,1.125,1.5625t0.9375,1.5l0.75-0.25q0.4375,0,0.4375,0.5q0,0.1875-0.0625,0.625t-0.0625,0.5625l0,0.125q0.25,0.25,0.5,0.75q0.125,0.125,0.5,0.375t0.5,0.375q0.125,0.1875,0.25,0.71875t0.25,0.71875q0.625,0.9375,0.6875,1.125q0.125,0.125,0.375,0.125t0.90625-0.3125t0.96875-0.3125q0.5,0,0.6875,0.375q0.125,0.125,0.125,0.375q0,0.4375-0.71875,1t-0.71875,0.9375t0.125,0.5q0.0625,0,0.5,0.9375q0.8125-0.4375,0.9375-0.4375q0.5,0.25,0.5,0.6875q0,0.125-0.25,0.375q-0.25,0.125-0.25,0.5q0,0.1875,0.34375,0.65625t0.40625,0.71875q0.125,0.0625,0.3125,0.375l0.1875,0.3125q1.5-0.5,1.6875-0.5q0.5625,0,0.875,0.5q0.125,0.125,0.125,0.375q0,0.4375-0.625,1t-0.625,0.625q0.125,0.1875,0.375,0.59375t0.375,0.59375q0.1875,0.4375,0.78125,1.1875t0.78125,1t0.6875,0.875t0.8125,1.125t0.5,0.9375q2.25,2,3.75,4.1875q0-0.5-0.0625-1.53125t-0.0625-1.53125l-0.25,0q-0.375,0-0.71875-0.25t-0.34375-0.625q0-0.125,0.25-0.625l1.1875-1.1875l0-0.75l0-0.875l0-2.0625q-0.0625-0.4375-0.125-0.5625t-0.25-0.21875t-0.375-0.40625l-0.1875-0.25q0-0.1875,0.6875-0.875q0-0.125-0.0625-0.3125t-0.0625-0.3125q-0.125-0.375-0.15625-1.25t-0.09375-1.0625l0-1q0-1.875,0.625-4.5q0.25-1.5,0.25-2.1875q0-0.8125-0.125-2.3125t-0.125-2.1875q-0.125,0.125-0.375,0.125q-0.8125,0-0.8125-0.75q0-0.375,0.125-0.5q0.125-0.375,0.9375-1.1875l0-0.75q-0.125-0.375-0.125-1.375q0-1.75,0.25-3.5q-1.375,0.875-1.6875,0.8125q-0.5-0.1875-0.5-0.375q0-0.4375,0.75-1.1875q1.3125-1.125,1.3125-1.6875q0-0.125-0.0625-0.40625t-0.0625-0.46875q-0.75-1.875-0.8125-2.1875q-0.5-1.125-2.6875-1.125l-1.875-0.375q-0.6875,0-1.6875-0.25q-0.5625,0-1.8125-0.25q-1.1875,0.5625-2,0.75q-0.5625,0-0.9375-0.375q-0.625,0-1,0.375l-0.375,0q-1.0625,0-1.0625-0.625l0-0.125q0.1875-0.6875,0.8125-0.6875l0.375,0q0.375,0,0.375-0.625l0-0.375q-0.125-0.25-0.125-0.75q0-0.8125,0.125-1.1875q-0.75,0.25-1,0.25q-0.9375,0-0.9375-0.625q0-0.5,0.625-1.125q1.125-1.125,1.1875-1.3125q0-0.1875-0.0625-0.625t-0.0625-0.625q-0.25-1-0.25-2.4375q0-1.9375,0.375-2.6875q0.6875-1.1875,3.9375-1.1875l0.3125,0q0.3125,0,0.9375-0.125t0.9375-0.125l0.375,0q0.9375,0,2.1875-0.25q1.5625,0,1.9375,0.25q0.125-0.125,0.75-0.125q0.75,0,0.75,0.125q0.75-0.25,1.3125-0.25q1.0625,0,2.5625,0.375q0.25-0.125,0.875-0.125q1.0625,0,2.5625,0.375q0.25-0.125,0.625-0.125q0.25,0,0.71875,0.125t0.71875,0.125q0.4375,0,1-0.375q0.125-0.125,0.4375-0.125l0.625,0l0.375,0q0.125-0.125,0.375-0.125l0.25,0l0.375,0q0.4375,0,1.28125-0.25t1.28125-0.25l0.375,0q0.75,0.25,0.9375,0.75q1-0.5,1.5-0.5l0.125,0q0.0625,0,0.65625,0.3125t0.65625,0.3125q0.25,0.125,0.875,0.125q0.375,0,1.21875-0.125t1.21875-0.125q1.9375,0,2.3125,0.375q0.25-0.0625,0.59375-0.28125t0.53125-0.21875l0.25,0q0.9375,0.25,1.34375,0.40625t0.75,0.65625t0.34375,1.375q0.0625,0.625,0.3125,2.84375t0.25,3.40625q0,0.25-0.0625,0.71875t-0.0625,0.71875z M155.0625,115.125l-0.125,0l0.125,0q-0.375,0.1875-0.90625,0.21875t-0.84375,0.28125q-1.5625,1.25-1.8125,1.5q-4.5625,3.75-5.875,4.875l-8.8125,7.3125q5.75-3.4375,10.4375-6q1.1875-0.6875,3.46875-2.0625t3.46875-2.0625q0.1875-0.0625,0.90625-0.5625t1.40625-0.875t1-0.25l0-1q0-0.75-0.125-1.125l-0.25,0q-0.25,0-0.875-0.125t-0.875-0.125l-0.3125,0z M129.375,123.5625l0.125,0l-0.125,0q0.0625,0,0.21875-0.0625t0.28125-0.0625l-0.125-0.125q-0.125,0-0.375,0.25z M131.9375,124.0625q0.25,0.125,0.5,0.125l0.125,0q-0.125,0-0.3125-0.0625t-0.3125-0.0625z M133.3125,125.0625l1.0625-0.75q-0.6875,0.375-1.0625,0.75q8.3125-6,14.625-9.5625l-0.5,0q-0.4375,0-1.0625,0.25q-0.75,0.5625-1.375,0.875q-4.4375,3.1875-4.625,3.3125q-0.625,0.4375-2.28125,1.5t-2.75,1.875t-2.03125,1.75z M133.5625,114.8125l0.125,0l-0.125,0l-0.875,0q-0.5625,0-1.25,0.6875t-2.0625,1.875t-1.5625,1.3125q0.75-0.375,2.34375-1.125t2.8125-1.40625t2.28125-1.34375l-1.125,0l-0.5625,0z M125.625,114.8125l0.125,0.125q0-0.125-0.125-0.125q-0.875,0.625-2.5625,2.3125q-0.25,0.25-0.375,0.40625t-0.25,0.34375t-0.15625,0.25t-0.09375,0.25t-0.09375,0.25t-0.09375,0.375t-0.0625,0.4375q4.4375-2.625,7.1875-4.625q-0.25-0.125-0.6875-0.125q-0.3125,0-1,0.21875t-1,0.21875q-0.1875,0-0.8125-0.3125z M121.8125,116.625l0.25-0.125q0.25-0.125,0.25-0.375q0-0.125-0.25-0.375q-0.25,0.125-0.25,0.5l0,0.375z M126.0625,118.4375l-0.6875,0.375q0-0.0625,0.28125-0.21875t0.40625-0.15625q-0.1875,0.125-1.4375,0.75t-1.9375,1.25t-0.625,1.3125q0.75-0.4375,1.5-1.03125t1.78125-1.5625t1.34375-1.21875q-0.0625,0.0625-0.28125,0.21875t-0.34375,0.28125z M134.625,129.3125q0.0625,0.1875,1.125-0.6875t1.4375-1.25q4.25-3.5,6-5q1.8125-1.4375,5.1875-4.28125t3.75-3.15625q-0.9375-0.4375-3.9375,1.8125q-3.6875,2.0625-7.5625,4.75q-1.25,0.75-4.5,3.0625q-0.125,0.125-0.78125,0.5625l-1.21875,0.8125t-0.5625,0.5625q0.4375,0.6875,1.0625,2.8125z M153.3125,121.25q-4.4375,2.5-11.6875,6.625q-1.25,0.6875-3.5,2.03125t-2.5,1.46875q-0.75,0.4375-0.75,1.75q0,0.5,0.125,1.5625t0.125,1.375l0,0.4375q0.3125-0.25,11.375-9.5l0-0.25q0-0.9375,0.75-1.84375t1.8125-1.09375q0.3125-0.25,1.0625-0.4375t1.125-0.5q0.4375-0.375,1.15625-0.9375t0.90625-0.6875z M135.125,162.0625q0-0.3125,3.6875-2.1875q-0.125,0.0625-0.84375,0.375t-1.21875,0.5625t-1.03125,0.625t-0.59375,0.625z M135,158.375l0.625-0.6875l-0.625,0.6875q2-2,6.375-5.875q-0.875,0.5-2.53125,1.46875t-2.46875,1.46875q-1.3125,0.75-1.4375,1.125q-0.0625,0.1875-0.0625,0.5q0,0.6875,0.125,1.3125z M136.8125,153.75q1-0.5625,2.90625-1.65625t2.84375-1.65625q1-0.6875,2.5625-1.5625q0.125,0,0.125-0.625q0-0.3125-0.03125-0.84375t-0.0625-0.90625t-0.03125-0.4375q-2.6875,2.5625-8.3125,7.6875z M135.375,147.75q1.625-1.5625,4.78125-4.78125t4.71875-4.84375q-1.5625,1-4.3125,3.09375t-3.9375,2.90625q-0.875,0.625-1.25,0.6875q-0.25,0.125-0.25,0.375q0,0.0625,0.0625,0.28125t0.0625,0.34375q0.125,0.25,0.125,0.875l0,1.0625z M135,138.375q3.3125-2,3.9375-2.3125q0.375-0.25,1.21875-0.6875t1.21875-0.6875q0.25-0.125,1.21875-0.875t1.78125-1.21875t1.375-0.46875l0-0.125q-5.5625,3-7.0625,3.9375q-0.0625,0-1.0625,0.5625t-1.8125,1.09375t-0.8125,0.78125z M145.75,129.5625q0-0.0625,0.0625-0.1875t0.0625-0.1875q-1.5625,1.1875-1.6875,1.25q0.3125-0.125,0.71875-0.21875t0.53125-0.1875t0.3125-0.46875z M144.1875,135.3125l-0.375,0.375q0.375-0.25,0.375-0.375q-1.125,1.125-6.75,6.8125q0.8125-0.5625,2.21875-1.71875t2.59375-2.03125t2.3125-1.5q0.75-0.4375,0.96875-1t0.34375-1.8125q-0.25,0.25-0.84375,0.625t-0.84375,0.625z M145.125,139.6875l-5.125,5.125q3.875-2.5,4.5625-2.8125q0.6875-0.375,0.6875-1.1875q0-0.125-0.0625-0.53125t-0.0625-0.59375z M135.125,139.8125l0.375-0.125q-0.125,0-0.375,0.125q-0.25,0.25-0.25,0.625q0,0.25,0.125,0.96875t0.125,0.96875l0,0.25q3.5625-3.5625,5.375-5.25q-0.9375,0.375-2.71875,1.21875t-2.65625,1.21875z M134.5,154.125q0-0.25,1.46875-1.5t2.21875-1.8125q0.5-0.4375,3.3125-2.9375q0.3125-0.3125,1.15625-1.0625t1.34375-1.21875t0.9375-1.21875t0.4375-1.5q-3.625,2-8.0625,5.375q-2.125,1.25-2.6875,2.1875l-0.125,0.9375l0,0.0625l0,1.8125l0,0.875z M142.0625,159.25l-1.3125,0.75l1.4375-0.875l-0.125,0.125q-3.125,2.0625-5.125,3.1875q-0.1875,0.125-0.5625,0.34375t-0.59375,0.375t-0.46875,0.40625t-0.3125,0.5625l0,2.1875l0,1.125q0.125,0.375,0.125,1.6875q0,1.125-0.25,1.5q0.125-0.125,0.53125-0.34375t0.65625-0.4375t0.1875-0.46875l0-0.125q0-0.5,0.9375-1.4375q3-3,4.5625-4.4375q-0.1875,0.125-1.15625,0.78125t-1.4375,0.90625t-1.25,0.625t-1.40625,0.5q-0.0625,0-0.1875,0.0625t-0.1875,0.0625q-0.375,0-0.6875-0.28125t-0.3125-0.65625l0-0.375q0.1875-0.5625,0.65625-1.0625t1.3125-1.125t0.96875-0.75q0.25-0.1875,2.96875-1.96875t4.09375-2.78125q-0.5,0.3125-1.53125,0.96875t-1.53125,0.96875z M117.0625,184.0625l0.375-0.25l-0.375,0.25q2.3125-1.6875,4.84375-3.3125t6.125-3.84375t4.90625-3.03125q-0.6875-0.1875-1.5-1.8125q-2.625,2.5-9.25,7.3125q-2.3125,1.6875-4.5,3.5625q-0.0625,0.0625-0.3125,0.1875t-0.34375,0.21875t-0.21875,0.25t-0.125,0.34375l0,0.125q0.0625,0,0.125,0.0625t0.125,0.0625z M134.875,172.1875q0,0.0625-0.0625,0.25t-0.0625,0.25q0.625-0.3125,1.3125-0.75t1.53125-0.96875t1.34375-0.84375q-0.5625,0.25-2.3125,1.125t-1.75,0.9375z M145.375,161.4375l0,0.125l0-0.125q-1.625,1.6875-6.8125,6.625q0.9375-0.5,1.90625-1.15625t2.125-1.4375t1.84375-1.21875q0.9375-0.75,0.9375-2.0625l0-0.75z M145.625,158.5q0,0.375-4.875,3.3125q-2.25,1.375-4.125,3.0625q1.75-0.75,5-3.0625q0.25-0.1875,0.90625-0.53125t1.03125-0.59375t0.84375-0.59375t0.78125-0.75t0.4375-0.84375z M128.5625,168.3125l-1.125-1.125q-0.75,0.625-2.28125,1.90625t-2.34375,1.90625q-1.5,1.375-4.5625,4.0625t-4.625,4.0625l0,0.125q1.5-0.9375,4.875-3.15625t5.96875-3.8125t5.03125-2.90625q-0.75-0.5-0.9375-1.0625z M125.625,164.75q-0.5-0.5-1-1.5q-1.8125,1.625-5.5,4.96875t-5.5,4.96875q0.625-0.375,2.96875-1.875t3.4375-2.15625t2.96875-1.65625t3.4375-1.6875q-0.0625-0.125-0.40625-0.5t-0.40625-0.5625z M121.9375,159.5l-0.375,0.25q0.375,0,0.375-0.25q-1.125,0.9375-4.0625,3.21875t-4.96875,4.0625t-3.65625,3.71875q4.75-2.8125,14.5-8.4375q-0.375-0.4375-1.03125-1.4375t-0.78125-1.125z M119.125,155.3125q-0.5625-0.5625-5,3.1875q3.5625-2.125,5.25-2.8125q-0.0625-0.0625-0.125-0.1875t-0.125-0.1875z M103.625,164.625l0.625-0.5l-0.5625,0.5l-0.0625,0q3.5-2.625,6.4375-4.75q-1.25,0.6875-3.625,2.03125t-3.5625,2.09375q0.0625,0.0625,0.1875,0.25t0.21875,0.28125t0.21875,0.09375l0.125,0z M112.0625,162.5625q-1.5625,1-3.8125,2.6875q2.75-1.8125,3.8125-2.6875z M101.3125,161.9375l2.5625-1.6875l-2.5625,1.6875q8.625-5.4375,15.375-10.25l0-0.125q-6.375,3.5-15.875,9.625q0.5,0.625,0.5,0.75z M99.5625,159.875l0.125,0q0.1875,0,0.5625-0.3125t0.78125-0.71875t0.53125-0.46875q3.0625-2.4375,4.75-4q0.4375-0.375,3.0625-2.53125t4-3.34375q-1.875,1.1875-5.21875,3.5625t-4.15625,2.9375q-0.4375,0.3125-1.34375,0.96875t-1.4375,1t-1.3125,0.8125t-1.53125,0.71875q0.0625,0.25,0.5625,0.6875t0.625,0.6875z M95.6875,153.75q0.125,0.125,3.21875-2.15625t6.28125-4.84375t3.5625-3.125q-0.375-0.0625-0.9375,0.25t-1.28125,0.875t-0.84375,0.6875q-3.125,2.1875-4.375,2.9375q-4.8125,3.125-6.5,4.125q0.0625,0.0625,0.40625,0.5t0.46875,0.75z M97.5,156.5625q0.0625,0.25,2.09375-1.21875t3.15625-2.34375q0.9375-0.8125,2.90625-2.28125t2.96875-2.21875q-4.625,2.875-9.375,5.625l-2.375,1.1875z M113,146.5625l-0.6875,0.5625q0.0625,0.0625,0.6875-0.5625q-0.5625,0.5-8.375,6.5625q7.8125-5.5,9-6.1875q-0.0625-0.125-0.1875-0.3125t-0.1875-0.3125z M117.4375,152.75l-0.125-0.125q-0.1875,0-0.375,0.375z M116.5625,154.625q1.1875-0.5625,1.5625-0.875q-0.375,0.3125-1.5625,0.875z M108.5,154.875l1.25-0.75l-1.375,0.875l0.125-0.125q2.4375-1.5625,7.5625-4.4375q-0.3125-0.3125-0.625-0.90625t-0.4375-0.78125q-6.375,5.375-9.4375,7.9375q0.5-0.375,1.625-1.03125t1.3125-0.78125z M99.125,152.75l1.5625-0.9375q-1.1875,0.6875-1.5625,0.9375q2.3125-1.25,6.9375-4.125q0.8125-0.4375,2.28125-1.40625t1.84375-1.15625q0.1875-0.125,0.5-0.28125t0.53125-0.28125t0.4375-0.28125t0.28125-0.375t0-0.46875q-0.3125-0.375-0.8125-1.1875t-0.8125-1.1875q-0.375,0.1875-0.8125,0.625q0.375,0.1875,0.375,0.75q0,2.1875-10.75,9.375z M107.1875,137.875q0.0625,0-0.25,0.3125t-0.90625,0.75t-1.28125,0.96875t-1.46875,1.125t-1.34375,1.03125t-1.0625,0.8125t-0.5625,0.375q-0.875,0.5625-2.65625,1.59375t-3.15625,2t-2.375,2.03125q0,0.125,0.125,0.125q8.625-5.3125,16.25-9.5625q-1.3125-1.3125-1.3125-1.5625z M105.0625,135.1875q0,0.0625-3.0625,2.53125t-6.375,5.28125t-3.875,3.5625q0.6875-0.0625,1.3125-0.375t1.5-1.03125t1.125-0.90625q0.8125-0.5625,2.53125-1.78125t2.59375-1.78125q0.75-0.4375,2.15625-1.34375t2.09375-1.34375l0.6875-0.375q0.75-0.4375,1.0625-0.375q-1-0.8125-1.75-2.0625z M103.75,133q-0.5625-0.75-0.875-1.375q-0.3125-0.5-0.625-0.5t-0.5625,0.25q-0.3125,0.3125-1,0.9375t-1,0.9375q-3.8125,3.1875-9,7.9375q2.25-1.3125,6.65625-3.875t6.65625-3.8125q-0.25-0.25-0.25-0.5z M101.1875,129.9375l-0.125,0q-0.125,0-0.25,0.125l0.375,0l0-0.125z M99.25,127.5q-0.25-0.4375-11.59375,6.5t-13.71875,8.75q0.4375-0.25,1.5625-1t1.96875-1.21875t1.71875-0.71875q0.0625,0,0.21875-0.0625t0.28125-0.0625q1.0625,0,1.0625,0.75q0,0.3125-0.4375,0.75q0.75-0.4375,0.9375-0.5625t0.21875-0.6875t0.15625-0.9375q0.125-0.5,0.5625-0.875t0.9375-0.375q0.3125,0,0.4375,0.125q0.375,0.125,0.5,0.375t0.25,0.25t0.625-0.25q0.625-0.25,2.5625-1.375q2.25-1.375,6.3125-4.3125t6-4.1875q-0.25-0.25-0.5625-0.875z M81.5,150.4375q0.375-0.25,0.375-1.6875q0-1.5625-0.125-1.9375q-0.8125,1.0625-1.9375,2.25t-1.8125,1.84375t-2.21875,2.125t-1.96875,1.84375q1.25-0.75,3.8125-2.21875t3.875-2.21875z M89.9375,115.625q-2.0625,1.125-4.125,2.375t-5.1875,3.3125t-4,2.625q-3.375,2.3125-5.5,3.5625q-0.625,0.3125-0.625,0.875q0,0.1875,0.15625,0.75t0.21875,0.9375q0.0625-0.375,0.625-0.875t1.40625-1t0.90625-0.5625q1.0625-0.875,3.21875-2.46875t3.28125-2.40625q1.625-1.1875,4.84375-3.53125t4.78125-3.59375z M95.1875,122.125l-0.625,0.25l0.625-0.25q-1.75,0.75-3.78125,1.8125t-3.4375,1.9375t-3.6875,2.3125t-3.40625,2.125q-1.125,0.75-3.125,2.03125t-3.59375,2.34375t-3.03125,2.0625q-0.25,0.5-0.25,2q0,0.625,0.0625,1.875t0.0625,1.75q11.875-8.4375,17.8125-13.1875q0.5-0.4375,1.6875-1.40625t2.0625-1.75t1.625-1.59375q1.375-1.375,1.375-1.6875q0-0.25-0.375-0.625z M81.625,143.125q-1,0.6875-2.84375,2.1875t-2.78125,2.1875q0.25-0.125,3.6875-2.1875q0.25-0.125,0.71875-0.34375t0.59375-0.3125t0.34375-0.3125t0.25-0.5t0.03125-0.71875z M70.875,149.9375q1.5-1.125,4.4375-3.40625t4.375-3.40625q-0.9375,0.5-5.5,3.3125q-1,0.5625-2.5625,1.6875q-0.625,0.375-0.625,1q0,0.5625-0.125,0.8125z M74.3125,144.125q2.125-1.3125,3.3125-2.25q-1.6875,1.0625-4.0625,2.6875q-0.125,0.125-0.875,0.53125t-1.28125,0.75t-0.53125,0.59375q0.5625-0.375,1.71875-1.15625t1.71875-1.15625z M71.25,134.8125q3.125-2.625,19.0625-15.75q-1.375,0.625-2.78125,1.40625t-2.96875,1.78125t-2.5625,1.6875t-2.8125,2t-2.5625,1.8125q-0.5,0.5-2.34375,1.71875t-2.78125,1.21875q-0.4375,0-0.625-0.375q0,3.25,0.375,4.5z M70.5,156.3125l0.125-0.125l-0.125,0.125q0.8125-0.75,3.21875-3t3.96875-3.8125t2.875-3.1875q-1.3125,0.75-3.75,2.21875t-3.75,2.15625q-2.1875,1.0625-2.1875,1.375l0,0.5625q0,0.4375-0.1875,1.5t-0.1875,1.5625l0,0.625z M98,124.5625q-0.25-0.125-1.25-1.125q-0.6875,0.9375-1.65625,1.9375t-1.65625,1.59375t-2.0625,1.71875t-1.8125,1.5q5.125-3.125,6.25-3.6875q0.1875-0.0625,0.65625-0.28125t0.78125-0.375t0.59375-0.40625t0.28125-0.5t-0.125-0.375z M93.75,119.9375q-0.25-0.25-1-1.375q-0.3125,0.4375-1.15625,1.09375t-1.03125,0.84375q-1.9375,1.4375-4.875,3.9375q-1.1875,1-3.59375,2.96875t-3.65625,3.03125q11.1875-7.25,16-9.3125q-0.0625-0.1875-0.34375-0.59375t-0.34375-0.59375z M91.375,116.125q-4,2.9375-4.5,3.3125q0.25-0.125,1.3125-0.75t1.90625-0.96875t1.53125-0.34375l0.5,0q-0.5-0.75-0.75-1.25z M86.75,115.375q-0.6875,0-1.9375-0.25q-2.375,1.375-2.6875,1.625q-4.0625,3-5.75,4.375q-0.75,0.5625-2.125,1.71875t-2.125,1.71875q-0.0625,0.0625-0.71875,0.59375t-1.09375,1t-0.375,0.71875q2.125-1.3125,8.21875-5.34375t9.46875-6.03125q-0.125,0-0.4375-0.0625t-0.4375-0.0625z M56.9375,122q0.8125-1.1875,2.21875-3.4375t2.21875-3.4375q-0.375,0.1875-1.5625,0.90625t-1.875,1.09375t-0.8125,0.53125t-0.3125,0.78125q0.125,0.375,0.125,1.75l0,1.8125z M64.4375,115.5l0.125,0l-0.125,0q-0.1875,0-0.65625-0.1875t-0.71875-0.1875q-0.125,0-0.375,0.25q-0.25,0.4375-0.8125,1.21875t-0.625,0.90625q-1.625,2.3125-2.5625,4.125l5.0625-3l5.0625-3q-0.125,0-0.40625,0.0625t-0.46875,0.0625q-0.125,0-0.46875-0.0625t-0.46875-0.0625t-0.625,0.0625t-0.875,0.0625q-0.5625,0-1.0625-0.25z M73.4375,121.875l-1.3125,0.875q0.4375-0.25,1.3125-0.875q-0.5,0.3125-1.53125,1.03125t-1.53125,1.03125q-0.125,0.0625-0.3125,0.1875t-0.25,0.1875t-0.15625,0.125t-0.125,0.125t-0.0625,0.15625t-0.03125,0.21875l0,0.375q1.1875-1.1875,4-3.4375z M70.5,158.375l0,0.25q5.6875-3.25,8.4375-5.25q-0.8125,0.4375-2.3125,1.28125t-2.3125,1.28125q-0.1875,0.1875-1.1875,0.65625t-1.78125,0.96875t-0.84375,0.8125z M76.75,156.9375q-5,3.125-5.375,3.3125q-0.75,0.3125-0.75,0.9375q0,0.0625,0.0625,0.375t0.0625,0.5q2.4375-2,6-5.125z M71.25,175.75l0.5-0.25q-0.5,0-0.5,0.25q2.0625-1.1875,8.5625-5.375q0.4375-0.375,1.9375-1.25l0-1.3125q-0.125-0.5-0.125-1.5l0-1.5625q-0.875,0.9375-2.65625,2.78125t-2.71875,2.84375q-0.0625,0.0625-0.71875,0.65625t-1.34375,1.25t-1.40625,1.375t-1.15625,1.3125t-0.375,0.78125z M71.125,170l0.25-0.125q-0.125,0-0.25,0.125l0,0.375q1.3125-0.5,2.59375-1.28125t3.15625-2.21875t2.3125-1.75q-0.875,0.5625-3.8125,2.15625t-4.25,2.71875z M81.625,163.5l-0.25,0.25q0.25,0,0.25,0.125q0.125-0.125,0.125-0.25t-0.125-0.125z M81.75,158l-0.5,0.5q0.5-0.375,0.5-0.5q-0.625,0.5625-2.375,2.09375t-2.9375,2.65625t-2.25,2.25q-1.9375,1.6875-2.6875,3.1875q0.5625-0.25,1.5-0.96875t1.3125-0.90625q2.875-1.8125,4.75-2.8125q0.75-0.5625,2.1875-1.3125l0.5-0.375l0-0.375l0-0.25l0-0.625l0-1.6875l0-0.875z M71,166.6875l0.375-0.5q-0.25,0.375-0.375,0.5q0.375-0.5625,0.9375-1.21875t0.96875-1.0625t1.125-1.09375t1.03125-1q-2.9375,1.75-4.1875,2.0625q0.125,0.5,0.125,1.6875l0,0.625z M71.125,173.6875q0,0.0625,0.96875-0.84375t1.46875-1.40625q1.5625-1.5625,2.3125-2.4375q-2.5,1.75-3.875,2.4375q-0.75,0.3125-0.75,0.875l0,0.5q0,0.5-0.125,0.875z M71.125,180.625l0,0.375q2.4375-1.75,6.5-4.875q0.1875-0.125,1-0.65625t1.40625-0.9375t1.15625-0.9375t0.5625-0.90625q-5.125,2.9375-6.6875,3.6875q-1.375,0.9375-3.4375,2.0625q-0.375,0.1875-0.375,1.0625l0,0.5q0,0.375-0.125,0.625z M67,198.0625l0.25-0.125l-0.25,0.125q2.1875-1.0625,4.28125-2.375t5.21875-3.625t3.9375-2.875q0.0625,0,0.53125-0.21875t0.6875-0.34375t0.5625-0.375t0.5-0.5t0.15625-0.5625t-0.125-0.4375q-0.5625-0.9375-0.875-2.8125q-1.3125,1.125-3.875,3.34375t-4.15625,3.59375t-3.6875,3.375t-3.78125,3.8125l0.25,0l0.375,0z M81.875,174.5q0,0.25-2.125,1.78125t-2.625,1.78125q0.4375-0.25,1.34375-0.75t1.34375-0.75q0.0625,0,0.4375-0.28125t0.5-0.28125l0.25-0.125q0.625,0,0.625,0.6875q0,0.25-0.25,0.5q-0.5,0.375-4.46875,3.25t-5.90625,4.4375q1.5625-0.75,5.625-3.5q3.375-2.75,4.25-3.0625q0.0625,0,0.125-0.0625t0.125-0.0625q0.625,0,0.625,0.625l0,0.125q-0.125,0.375-1.9375,1.5625q-0.9375,0.625-2.71875,1.90625t-2.65625,1.90625q4.375-2.9375,5.75-2.9375q0.625,0,0.8125,0.375q0.375-0.125,0.59375-0.5625t0.28125-0.8125t0.09375-1.09375t0.03125-0.96875q-0.25-1-0.25-2.1875q0-0.375,0.0625-0.875t0.0625-0.625z M71.25,182.9375q-0.0625,0.0625-0.1875,0.125t-0.1875,0.125q0.0625-0.0625,0.1875-0.125t0.1875-0.125z M69.9375,186.75l0.3125-0.125l-0.3125,0.125q0.8125-0.4375,1.4375-0.875q-0.0625,0-0.46875,0.125t-0.6875,0.28125t-0.28125,0.34375l0,0.125z M80.5625,179.125q0.0625,0.0625,0.15625,0.125t0.15625,0.125q-0.0625-0.0625-0.15625-0.125t-0.15625-0.125z M60.875,190.875l0.125,0l-0.125,0q-2.0625,0-2.8125,0.625q-0.5,0.3125-0.5,1.1875q0,0.1875,0.0625,0.71875t0.0625,0.78125q0.9375-0.5625,2.6875-1.65625t2.6875-1.65625q-0.1875,0-0.53125,0.0625t-0.46875,0.0625q-0.1875,0-0.59375-0.0625t-0.59375-0.0625z M63.9375,197.625l-0.125,0l0.125,0q0.1875,0,0.4375,0.09375t0.375,0.09375l0.25,0q1-1,1.75-1.9375q3.25-3,5.25-4.75q4-3.6875,9.5-8.3125q-1.5625,0.375-3.40625,1.3125t-3,1.6875t-3.21875,2.21875t-2.8125,1.96875q-0.6875,0.4375-4.9375,3.125t-6.4375,4.125q1.3125,0.375,2.9375,0.375l2.3125,0l1,0z M71.875,197.9375l0.125,0l-0.125,0q0.25-0.125,0.75-0.125l0.4375,0q0.4375,0,0.875-0.4375q0.25-0.3125,0.78125-0.875t0.78125-0.875q1.875-2,4.9375-4.875q-9.4375,6.4375-10.625,7.1875l0.4375,0l1.125,0l0.5,0z M84.0625,198.4375q0-0.125-0.125-0.125l0.125,0.125q0.125-0.0625,1.03125-0.5625t1.28125-0.5q0.25,0,0.5625,0.125t0.4375,0.125q0.3125,0,0.625-0.625q0.5-1.125,3.625-6.625q-5,3.1875-11.6875,7.125l0.5,0q1.75,0,3.625,0.9375z M93.25,197.375q0.3125,0.0625,0.53125,0t0.3125-0.21875t0.125-0.3125t0.09375-0.5625t0.125-0.65625q-0.4375,0.25-1.34375,0.8125t-1.34375,0.8125q0.5,0.125,1.5,0.125z M95.3125,196.875l0,0.25l0-0.25q0,0.125-0.125,0.375t-0.125,0.375q0,0.3125,0.375,0.3125l0-0.5625q0-0.375-0.125-0.5z M94.8125,190.625q-0.1875,0-0.5-0.0625t-0.4375-0.0625q-1,0-1.875,1.625q-0.375,0.6875-1.15625,2.1875t-1.15625,2.1875q0.25-0.1875,1.40625-0.96875t2.03125-1.21875t1.6875-0.625q0.25-0.25,0.25-1.9375q0-1.125-0.25-1.125z M86.625,189.5625q-0.0625,0-0.1875,0.0625t-0.1875,0.0625q-0.25,0-0.90625-0.21875t-0.90625-0.28125q-0.375,0-0.90625,0.40625t-1.125,1.03125t-0.78125,0.75q-3.8125,3.375-6.25,6.125q0.4375-0.0625,0.875,0.03125t0.5,0.09375q0.25,0,1-0.375q0.5625-0.3125,1.75-0.9375t1.75-0.9375q1.375-0.8125,4.125-2.5625t4.1875-2.5625q-0.5-0.25-1.625-0.4375t-1.3125-0.25z M72.625,176.5625q0.875-0.5,2.59375-1.5625t2.53125-1.5625q0.25-0.125,1.0625-0.5t1.375-0.65625t1.0625-0.78125t0.5-1q-4.9375,3.125-9.125,6.0625z M81.75,154.75l0-0.375q-1.875,1.6875-5.5625,4.71875t-4.1875,3.46875q2.1875-1.0625,6.0625-3.5625q0.3125-0.25,1.5-1.09375t1.8125-1.34375q0.375-0.25,0.375-0.875l0-0.9375z M86.875,142.625q0.125,0,0.25,0.125t0.125,0.25q0.875-1.125,2.0625-2.34375t2.09375-2t2.46875-2.09375t2.1875-1.875q-6.125,3.9375-8.6875,5q-1,0.5-1.4375,0.5q-0.25,0-0.5625-0.28125t-0.4375-0.21875q0.375,0.875,1.9375,2.9375z M89.5625,145.4375q0.25,0.25,0.75,1q0.3125-0.75,0.96875-1.46875t1.8125-1.625t1.34375-1.09375q1.3125-1.125,3.8125-3.1875t2.9375-2.4375q-2.5625,1.4375-7.25,4.15625t-5.5625,3.21875q0.9375,0.9375,1.1875,1.4375z M93.25,150.4375q0.75,0.75,0.8125,0.75q0.1875,0,0.875-0.5q0.375-0.25,2.1875-1.65625t2.8125-2.09375q0.25-0.1875,1.1875-0.84375t1.28125-0.90625t1.1875-0.75t1.375-0.78125t1.25-0.625t1.40625-0.53125q0.3125-0.125,1.125-0.8125t0.75-0.875q-0.1875-0.375-0.375-0.375q-0.125,0-0.375,0.125q-0.625,0.375-2.21875,1.34375t-2.53125,1.46875q-8.5625,5.0625-11.125,6.6875z M106.8125,170.375q0.125,0.0625,0.5625,0.5q0.625-1.125,1.53125-2.0625t2.625-2.3125t1.96875-1.625q0.1875-0.1875,6.625-5.5q0.1875-0.1875,0.4375-0.34375t0.375-0.21875t0.125-0.1875q0-0.25-0.125-0.5q-0.125,0.0625-2.8125,1.75q-1.0625,0.6875-3.34375,2.4375t-4.125,2.96875t-3.71875,2.03125q-0.5,0.25-1,0.25q-0.75,0-0.75-0.75l0-0.25q0.1875-0.4375,0.625-0.875t1.21875-1.03125t0.84375-0.65625q-0.0625,0.0625-1.09375,0.6875t-1.75,1.1875t-0.65625,0.8125q0.5625,0.8125,0.6875,1.25q0.3125,0.375,0.875,1.21875t0.875,1.21875z M110.0625,174.75q-0.0625-0.0625,0.84375-0.9375t2.34375-2.15625t2.8125-2.5t2.6875-2.34375t1.5-1.3125q-5.25,3.0625-11.75,6.8125q0.25,0.375,0.78125,1.21875t0.78125,1.21875z M124.25,168.3125l-1.9375,1.1875q0.5,0,1.9375-1.1875q-5.875,3.1875-13.0625,7.9375q1,0.75,1.5625,1.6875q0.1875,0.1875,1.375-0.875t1.4375-1.4375q1.5-1.25,4.375-3.6875t4.3125-3.625z M114.875,181.125q0.25,0.375,0.9375,1.6875q2.25-2,6.78125-5.375t6.53125-5.125q0.125-0.125,0.4375-0.34375t0.5-0.34375t0.3125-0.3125t0.125-0.4375l-0.25-0.5q-1.625,0.9375-2.0625,1.5625q-0.3125,0.4375-0.6875,0.78125t-0.9375,0.71875t-0.9375,0.5625t-1.09375,0.53125t-0.90625,0.46875q-2.3125,1.375-6.3125,3.6875q-0.5,0.375-1.625,1.03125t-1.3125,0.78125q0.0625,0.125,0.25,0.3125t0.25,0.3125z M119,186.875q0.125,0.0625,0.3125,0.28125t0.3125,0.28125q0.625-1,2.4375-2.5625q-2.6875,1.1875-3.5625,1.375q0.0625,0.125,0.25,0.3125t0.25,0.3125z M122.4375,191.875q0.25,0.1875,2.21875-1.25t4.34375-3.3125t2.4375-1.9375q1.5-1.1875,4.4375-3.53125t4.375-3.53125q-8.8125,5.875-12.8125,8.0625q-0.25,0.1875-0.96875,0.59375t-1.0625,0.59375t-1,0.53125t-1.125,0.53125t-1.0625,0.40625t-1.15625,0.28125q1.0625,1.5625,1.375,2.5625z M138.5625,198.0625l0.9375-0.5625l-0.9375,0.5625q0.8125-0.375,4.375-2.5625l0.9375-0.46875t1.25-0.75t0.625-0.71875q-0.125-0.375-0.125-1q0-0.3125,0.0625-1.03125t0.0625-1.03125q0-0.8125-0.125-1.0625q-5.5,6.3125-7.4375,8.375q0.25,0.25,0.375,0.25z M126.9375,198.3125q0.625-0.4375,0.625-0.6875q-0.25,0.1875-0.625,0.6875q0.875-0.5625,6.59375-4.28125t8.90625-5.46875q2-1.125,2.9375-1.375q-0.125-0.625-0.125-1.9375q0-1.9375,0.125-2.8125q-3.25,2.9375-10,7.53125t-8.3125,5.78125q2.375-1.375,6.78125-4.125t6.40625-3.9375q3.3125-2.375,4.1875-2.1875q0.5625,0.1875,0.5625,0.375q0,0.3125-0.4375,0.71875t-0.9375,0.71875t-1,0.5625l-0.4375,0.3125q-3.75,1.9375-7.1875,4.0625q-0.5,0.3125-2.03125,1.3125t-2.28125,1.53125t-1.875,1.4375t-1.875,1.78125z M145.75,175.5l-0.125,0.125q0.125,0,0.125-0.125q-1.875,1.625-5.59375,4.53125t-4.15625,3.28125q5.625-3.6875,7.9375-4.625q0.25-0.0625,0.84375-0.1875t0.78125-0.34375t0.3125-0.71875q-0.125-0.625-0.125-1.9375z M127.5625,190.5l-0.375,0.25q0,0.0625,0.40625-0.21875t0.84375-0.53125l0.4375-0.3125q-0.125,0-1.3125,0.8125q-0.25,0.1875-1.65625,1.25t-2.28125,1.5625q1.25,1.3125,1.625,2.3125q1.5625-1.25,3.40625-2.5625t4.0625-2.84375t3.40625-2.40625q3.5-2.3125,6.5625-4.875q0.375-0.3125,1.15625-0.96875t1.15625-0.96875q0.25-0.25,0.34375-0.40625t0.125-0.28125t0.0625-0.34375t0.09375-0.46875q-0.625,0.125-1.375,0.375t-1.21875,0.46875t-1.34375,0.75t-1.125,0.6875t-1.28125,0.8125t-1.09375,0.71875q-2.3125,1.5-10.625,7.1875z M134.25,197.625l-0.125,0l0.125,0l0.375,0l0.625,0q0.375,0,0.875,0.3125l0.5-0.25t0.4375-0.3125q0.375-0.4375,1.21875-1.40625t1.21875-1.40625q0.875-1,2.5-2.875t2.4375-2.875q-2.3125,1.125-4.625,2.53125t-5.4375,3.53125t-4.375,2.9375l0.375,0q0.375,0,1.375-0.21875t1.5625-0.21875q0.4375,0,0.9375,0.25z M144.875,197.625l0.125,0l-0.125,0q0.625,0.1875,0.75,0.1875l0-0.8125l0-1.625q-0.5,0.3125-1.46875,1t-1.46875,1q1.25,0.25,2.1875,0.25z M145.375,170.75l0-0.125l0,0.125q0-0.125-0.0625-0.3125t-0.0625-0.3125q-8.4375,6-15.25,10.25q-3.1875,1.9375-7.0625,5.375q-2,1.75-2.4375,2.5625q1.0625-0.125,3.125-1.3125q4.75-2.3125,8.4375-4.8125q4.25-2.625,10.5-6.8125q0.0625-0.0625,0.46875-0.28125t0.8125-0.5t0.84375-0.5625t0.71875-0.5t0.21875-0.34375q-0.25-1.25-0.25-2.4375z M133.8125,176q2.1875-1.5625,6.8125-4.4375q0.1875-0.125,1.125-0.6875t1.5625-0.96875t1.21875-1t0.59375-1.09375q-3.5,2.125-15.5,10.5q-0.4375,0.3125-1.6875,1.21875t-1.84375,1.3125t-1.75,1.15625t-1.9375,1.1875t-1.84375,0.9375t-2.0625,0.875q1.625-0.5,3.15625-1.21875t3.4375-1.875t2.75-1.71875t3.21875-2.25t2.75-1.9375z M140,156.9375q3.4375-2.0625,3.6875-2.1875q0.1875-0.125,0.78125-0.4375t0.9375-0.59375t0.46875-0.59375q0-0.8125-0.25-2.5625q-4.5,3.6875-6.25,5.375q-0.0625,0.0625-0.96875,0.78125t-1.46875,1.21875t-1.125,1.1875t-0.5625,1.125q0.75-0.5625,2.375-1.65625t2.375-1.65625z M157.375,122.875l0-0.125l0,0.125q0-1,0.375-1.75q0-0.3125-0.0625-0.9375t-0.0625-0.875l0-0.5q-1,1.3125-4.0625,3.6875q0.4375,0.0625,0.625,0.21875t0.25,0.15625q0.375,0,0.625-0.125q0.125-0.125,0.6875-0.125l0.375,0q0.75,0.25,1.25,0.25z M184.35875,128.25l-0.125,0l0.125,0q-0.75-0.1875-0.75-0.75q0-0.625,1.3125-1.9375q0.5-0.5,0.5-1q0-0.125-0.25-0.875q-0.8125-1.4375-0.8125-3.0625l0-0.6875q0-0.4375,0.8125-1.625q0-0.6875,0.25-1.4375q0.9375-1.875,1.5-2.4375q0.125-0.125,1.0625-0.75l0-0.25q0-0.375,0.125-0.5q0.0625-0.0625,0.1875-0.125t0.1875-0.125q0.3125-0.1875,0.96875-0.59375t0.96875-0.59375q0.375-0.1875,1-0.5625t1-0.5625q1.125-0.375,1.6875-0.375q0.5,0,0.75,0.25q1.0625-1.3125,2.0625-1.3125l0.375,0q2.0625,0.5,2.1875,0.625q2.5,0.3125,3.4375,1.1875q0.1875,0.0625,0.6875-0.03125t0.625-0.09375q0.5,0,0.625,0.625q0.125,0.3125,0.59375,0.71875t0.59375,0.71875q0.3125,0.5625,0.875,1.71875t0.875,1.71875q0.125,0.1875,0.65625,0.34375t0.53125,0.40625q0,0.0625-0.0625,0.1875t-0.0625,0.1875q-0.25,0.75-0.25,0.8125t0.03125,0.125t0.09375,0.21875t0.125,0.28125q0.75,1.875,0.75,2.6875q0,0.5-0.25,1l0,0.25q0,0.9375-0.5,1.6875q0,0.125-0.0625,0.53125t-0.0625,0.46875q0.25,0.25,0.25,0.5625q0,0.25-0.25,0.5l0.125,0.25q0,0.1875-0.125,0.34375t-0.375,0.3125t-0.3125,0.21875q-0.25,0.25-1.25,0.75q-0.3125,0.1875-0.4375,0.3125t-0.125,0.1875t-0.03125,0.25t-0.15625,0.4375q-0.375,1.1875-3.25,1.8125q-1.25,1.875-2.25,1.75q-0.375,0-0.5625-0.0625t-0.25-0.0625q-0.25,0-0.5,0.125t-0.875,0.125q-0.25,0.375-1.1875,0.375l-1,0q-0.125,0-0.46875-0.25t-0.40625-0.25l-0.8125,0l-0.375,0q-0.1875-0.0625-1-0.3125t-1.1875-0.4375q-2.9375-1.5-3.4375-2.4375q-0.0625-0.125-0.53125-0.625t-0.59375-0.8125q-0.4375-0.625-0.8125-0.625q-0.1875,0-0.75,0.25t-1,0.25l-0.4375,0z M194.85875,122.5q-0.875,0.5625-2.59375,1.75t-2.53125,1.75q-0.375,0.1875-0.375,0.375l0.25,0.5q3.0625-2.625,5.25-4.375z M191.42125,122.875l0.25-0.125q-0.125,0-0.25,0.125q0.375-0.125,0.96875-0.46875t0.71875-0.40625q-1.5625,0.75-1.6875,0.875z M193.23375,129.5625q1.3125,0,1.875,0.375l1.6875-1.6875q1.4375-1.25,4-3.8125q0.125-0.125,0.8125-0.75t1.40625-1.3125t1.4375-1.40625t1.15625-1.28125t0.3125-0.75q-13.3125,7.625-15.5,8.9375q0.5,0.0625,1.40625,0.84375t1.40625,0.84375z M206.54625,120.625q-0.125-0.1875-0.125-0.3125q-1.9375,2.125-8.0625,8.25q0.875-0.5,2.96875-1.75t3.28125-1.875q2.0625-1.375,2.0625-3.4375q0-0.1875-0.0625-0.46875t-0.0625-0.40625z M204.98375,116.875q-0.5-1.1875-1-2.0625q-0.1875-0.625-0.625-0.625q-0.0625,0-0.5625,0.25q-1.4375,1.4375-2.9375,2.5625q1.625-0.8125,2.9375-1.75q0.125-0.125,0.5625-0.125q0.5,0,0.5,0.625q0,0.375-0.25,0.5q-0.3125,0.25-0.375,0.625t-0.3125,0.625q-0.1875,0.125-0.5,0.40625t-0.5,0.40625q-1.3125,1.125-5.875,4.875q1.0625-0.5625,3.125-1.8125t3.125-1.8125q2.1875-1.25,2.9375-1.625q0.125-0.125,0.125-0.3125z M196.17125,112l-0.125,0.125l0.125-0.125q-0.25,0.375-0.75,0.375l-0.3125,0q-0.5,0-0.75,0.6875q-0.1875,0.5625-0.625,1q-0.3125,0.5625-3.6875,4.75l4.6875-3t4.75-3q-3.0625-0.6875-3.3125-0.8125z M188.48375,118.4375q-0.25,0.25-0.25,0.625q0.5-0.625,1.59375-1.96875t1.59375-1.96875q-0.875-0.0625-1.34375,0.5t-0.875,1.5t-0.71875,1.3125z M187.85875,123.1875l0.125,0.25q9.75-5.875,14.0625-9.875q-0.125-0.0625-0.28125-0.125t-0.21875-0.09375t-0.125-0.03125q-0.25,0-0.625,0.25q-0.1875,0.125-2.9375,1.8125q-1.125,0.625-3.21875,1.96875t-3.21875,1.96875q-2.75,2.1875-3.6875,2.1875q-0.0625,0-0.1875-0.0625t-0.1875-0.0625l0,0.125q0,0.6875,0.5,1.6875z M186.04625,126.25l-0.125,0.125l0.125-0.125q-0.125,0.125-0.4375,0.375t-0.4375,0.375q0.75-0.25,1-0.5q0-0.125-0.125-0.25z M219.04625,194.4375l0.1875,0l-0.1875,0l0,0.9375l0,1.75q0,1.6875-0.125,2.1875q0.0625,0.8125-0.71875,1.1875t-1.84375,0.375q-0.25,0-0.625-0.0625t-0.5-0.0625q-1.6875,0-2.4375-0.125q-0.75,0.375-1.8125,0.375q-0.625,0-0.875-0.125q-0.125,0.125-0.5,0.125l-1,0l-0.5625,0l-0.25,0q-0.1875,0-0.6875-0.125t-0.6875-0.125l-0.8125,0l-0.375,0q-2,1-2.6875,1q-0.3125,0-0.53125-0.25t-0.21875-0.5l-0.875-0.375l0,0q-1.25,0.5-1.5625,0.5q-0.375,0-1-0.625q-0.5625,0.75-1.9375,0.75q-0.5,0-1-0.25q-0.5,0-1.375-0.125t-1.3125-0.125q-0.25,0.125-0.6875,0.125q-0.25,0-0.75-0.25q-1.125,0.375-1.25,0.375l-0.6875,0q-0.125,0-0.625,0.125q-0.0625,0-0.25,0.0625t-0.25,0.0625q-0.125,0-0.3125-0.0625t-0.3125-0.0625q-0.5,0.25-1.1875,0.25q-0.5,0-0.5-0.5q-0.125,0.125-0.5,0.125q-0.25,0-0.875-0.28125t-0.9375-0.21875q-1.125,0-2.0625-0.1875q-0.6875,0.4375-1.125,0.4375l-1,0l-0.6875,0q-0.4375,0.0625-1.15625,0.4375t-0.84375,0.4375l-0.3125,0q-0.875,0-0.875-1q0-0.75,0.625-1.5625q0.4375-0.4375,0.4375-0.75q0-0.4375,0.125-0.8125q-0.125-0.375-0.125-1.5q0-1.4375,0.25-1.8125q-0.25-1-0.25-2.1875l0-0.75q-0.1875-0.9375-0.1875-2.4375l0-0.125q0-0.6875,1.4375-1.375q0.25-0.125,0.625-0.125q0.3125,0,0.875,0.1875t0.8125,0.1875l0.25,0q0.375-0.25,2.1875-0.25q0.3125,0.0625,1.03125-0.3125t1.03125-0.375q0.75,0.0625,0.9375-0.21875t0.09375-0.71875t0.21875-0.9375l0-0.25q0-0.25,0.125-0.8125t0.125-0.75q-0.5,0.5-1.125,0.5q-0.5,0-0.5-0.625l0-0.125q0-0.5,1-1.1875q1.5-1.125,1.5-2.9375l0-0.375q-0.0625,0-0.375,0.21875t-0.59375,0.375t-0.53125,0.15625q-0.375,0-0.5-0.25q0-0.0625-0.0625-0.125t-0.0625-0.125q0-0.1875,0.1875-0.4375t0.40625-0.375t0.53125-0.3125t0.375-0.25q0.8125-0.625,0.8125-1.8125q0-0.3125-0.4375-2.9375q-0.125-1.6875-0.125-4.75q0-3.1875,0.125-4.75q-0.125,0.125-0.5,0.125q-0.875,0-0.875-0.5q0-0.3125,0.375-0.5q0.0625-0.125,0.4375-0.3125t0.4375-0.3125q0.125,0,0.125-0.375t-0.125-1.1875t-0.125-0.875q-0.125-0.25-0.125-1q0-0.5,0.1875-1.5625t0.1875-1.5625q0-0.75-0.375-1.5q-0.125,0.125-0.5,0.125q-0.875,0-0.875-0.5q0-0.375,0.375-0.5625q0-0.0625,0.3125-0.15625t0.3125-0.21875t-0.0625-0.375t-0.0625-0.375q-0.375-0.375-0.5-0.375q-0.0625,0-1.0625,0.5q-0.125,0.125-0.375,0.125q-0.375,0-0.375-0.5q0-0.6875,0.5-0.875q-0.25-0.125-0.875-0.125l-0.75,0q-0.75,0-1.0625-0.3125q-0.8125,0.3125-2.4375,1.4375l-0.25,0.125q-0.75,0-0.75-0.625q0-0.0625,0.0625-0.125t0.0625-0.125q-0.0625,0.0625-0.40625,0.34375t-0.6875,0.46875t-0.59375,0.1875q-0.625,0-0.625-0.375q0-0.25,0.34375-0.625t0.59375-0.5q-0.5625-0.375-0.5625-1.8125q0-0.8125,0.125-1.0625q-0.125,0-0.34375,0.09375t-0.28125,0.09375q-0.625,0-0.625-0.5625q0-0.875,0.875-1.75q0.5-0.5,0.5-1.4375l0-1.375q0-0.25-0.0625-0.875t-0.0625-0.9375q0-0.8125,0.3125-2.6875q0.1875-1.4375,2.5-1.4375q1,0,1.6875,0.4375q0.125,0.125,0.5,0.125q0.4375,0,2.1875-0.6875q0.375-0.125,1.0625-0.125q0.75,0,1-0.125t0.625-0.125q0.25,0,0.84375,0.125t0.84375,0.125l1.25,0l0.625,0q1,0.25,1.4375,0.25t1.40625-0.125t1.40625-0.125q0.5625,0,1.3125,0.25q0.375-0.375,1-0.375q0.5,0,0.75,0.25q0.25-0.25,1.4375-0.25q0.125-0.125,0.5-0.125q0.25,0,0.78125,0.125t0.78125,0.125q0.4375,0,1.21875,0.21875t1.03125,0.28125q0.375-0.25,1.3125-0.25l1.25,0l0.5625,0l0.375,0q1.8125,0,2.3125,1.5625l0,0.375l0,0.625l0.375,0q0.5625,0,0.75,0.375q0.125,0.125,0.125,0.5625q0,0.5625-0.875,1.75q-0.5625,0.5625-0.5625,0.8125q0,0.0625,0.09375,0.0625t0.21875,0.03125t0.28125,0.1875t0.21875,0.34375q0.125,0.125,0.125,0.5q0,0.625-0.9375,1.5625q0.0625,0.75,0.375,2.8125t0.3125,3.1875q0,1.4375-0.25,2.0625q-0.125,0.5-0.1875,1.84375t-0.25,1.96875l0,0.75q0,0.5625-0.125,0.8125l0,0.25q0,0.4375,0.375,0.71875t0.4375,0.65625t-0.15625,0.8125t-0.21875,0.625l0,0.125q0,0.1875,0.0625,0.6875t0.0625,0.6875q0,1.1875-0.25,1.9375l0,1.0625q0,1.0625-0.3125,2.9375q0.125-0.125,0.5625-0.125q0.75,0,0.75,0.5q0,0.125-0.25,0.375q-0.1875,0.25-0.40625,0.40625t-0.3125,0.21875t-0.1875,0.25t-0.15625,0.5q0.5-0.25,0.6875-0.25q0.375,0,0.375,0.6875q0,0.5-0.28125,1.28125t-0.46875,0.96875l0.5625-0.28125t0.6875-0.21875q0.5,0.25,0.5,0.625t-0.375,0.5625q-0.1875,0.3125-0.84375,0.5625t-0.71875,0.8125q0.5625,1.375,0.5625,3.0625q0,0.8125-0.25,1.3125q0.0625,0.5625-0.25,1.59375t-0.3125,1.46875l0,0.25q0.1875,0.5,0.46875,1.53125t0.46875,1.53125q0.5,0,1.625,0.375l0.8125,0q1,0,1.25,0.25q2.6875,0,3.3125,0.3125q0.125-0.125,0.5625-0.125q1,0,1.5625,1.09375t0.4375,2.09375q0.5625,1.6875,0.5625,3.1875q0,0.1875-0.09375,0.46875t-0.09375,0.40625z M216.10875,194.9375q-0.125,0.125-0.125,0.3125q0.125-0.1875,0.125-0.3125q-0.25,0.25-0.6875,0.71875t-0.6875,0.71875q0.5-0.25,0.875-0.25q0.25,0,0.5,0.25l0-0.375l0-1.0625z M212.92125,190.25l-0.125,0l0.125,0l-0.5,0l-0.75,0q-0.5,0-0.9375,0.875q-0.5,1.1875-3.1875,4.875q5.1875-3.8125,7.4375-4.625q0.75-0.375,0.75-0.5q0-0.625-2.8125-0.625z M208.73375,189.5625l-0.125,0l0.125,0q-0.5,0-0.9375-0.21875t-0.6875-0.5t-0.46875-0.875t-0.3125-0.90625t-0.21875-0.96875t-0.1875-0.84375q-0.4375,0.6875-1.125,1.4375t-1.15625,1.15625t-1.53125,1.28125t-1.3125,1.125q-0.6875,0.625-7.6875,6.25q2.625-1.5,12.375-7.5625q0.125-0.125,0.4375-0.125q0.1875,0,0.40625,0.25t0.21875,0.5q0,0.0625-0.0625,0.15625t-0.0625,0.15625q-0.1875,0.3125-0.46875,0.625t-0.8125,0.6875t-0.65625,0.4375q-1.8125,1.5625-5.125,4q1.625-0.875,9.625-6.0625l-0.25,0z M188.60875,185.25q2.0625-1.1875,9.375-5.5q2.6875-1.375,5.375-3.375q0.375-0.25,1.0625-0.75t1.0625-0.75l-0.125-0.75q-1.9375,1.1875-5.90625,3.53125t-5.96875,3.59375q-0.75,0.375-3.5625,1.9375q-0.4375,0.25-0.65625,0.46875t-0.28125,0.34375t-0.1875,0.5625t-0.1875,0.6875z M200.23375,175.75l1.4375-0.875q-0.4375,0.25-1.4375,0.875q0.3125-0.1875,1.71875-0.90625t2.375-1.375t1.03125-1.15625q-0.25,0.1875-2.15625,1.46875t-2.96875,1.96875z M193.10875,177.5625q1.3125-0.75,3.84375-2.21875t3.84375-2.28125q1.3125-0.6875,4.1875-2.4375q0.5-0.3125,0.5-1q0-0.1875-0.0625-0.5625t-0.0625-0.5625q-4.125,3.4375-12.25,9.0625z M190.04625,178.1875l0.5-0.375q-0.5,0.25-0.5,0.375q1.4375-1.0625,4.84375-3.375t5.875-4.15625t4.59375-3.71875q-2.5625,1.0625-8.6875,5q-0.9375,0.625-2.78125,1.84375t-2.84375,1.84375q-1,0.5625-1,1.1875l0,0.875l0,0.5z M205.73375,164l0,0.125l0-0.125q-0.8125,0.6875-5.0625,4.0625q0.375-0.1875,1.875-1.03125t2.3125-1.21875q0.75-0.3125,0.75-0.8125l0-0.375q0-0.375,0.125-0.625z M189.92125,161.1875l0.6875-0.5l0.0625,0q-0.25,0.125-0.75,0.5q-0.1875,0-0.1875,0.5l0,1.125l0,0.5625q5.5-4.25,10.25-8.1875q-1.625,1-5,2.96875t-5.0625,3.03125z M189.35875,158.25l3.375-2.3125q0-0.0625-0.84375,0.5t-1.6875,1.15625t-0.84375,0.65625q4.8125-3.3125,10.375-7.4375q0.125-0.125,1.78125-1.28125t2.84375-2.21875t1.125-1.625q-5.6875,4.1875-10.375,7.0625q-3.25,1.625-4.5625,1.625q-0.8125,0-0.8125-0.625l0-0.25q0.0625-0.3125,0.59375-0.71875t1.25-0.75t0.84375-0.46875q0.9375-0.5625,2.8125-1.71875t2.875-1.71875q0.9375-0.625,2.75-1.9375t2.75-1.9375l1.875-1.5l0-0.375l0-0.9375q-9.1875,5.6875-11.875,7.4375q-1.8125,1.0625-4.625,2.8125q0.5,2.3125,0.5,2.5625q0.125,0.25,0.125,1.0625q0,0.4375-0.125,1.46875t-0.125,1.46875z M205.92125,152.625l0-0.4375q-1.9375,1.375-2.875,2.1875l0.5625-0.1875t0.75-0.21875t0.625-0.09375t0.75,0.25q0-0.9375,0.1875-1.5z M205.73375,147.375l-0.625,0.625q0.625-0.5,0.625-0.625q-0.5625,0.5625-5.875,4.8125q0.5-0.375,1.53125-0.9375t1.40625-0.8125q2.3125-1.5625,2.8125-1.5625q0.3125,0,0.4375,0.125q-0.0625-0.25-0.15625-0.8125t-0.15625-0.8125z M206.04625,150.0625q-0.5,0.375-1.625,1.0625t-1.625,1.0625q1-0.625,3.25-2.125z M189.60875,169.875l4.25-3.4375q-4.25,3.3125-4.25,3.4375q8.0625-6.75,11.4375-10q0.1875-0.1875,1.375-1.1875t1.84375-1.84375t0.84375-1.65625q-0.5625-0.1875-1.625,0.1875t-1.78125,0.84375t-1.875,1.3125t-1.21875,0.84375q-1.625,1.0625-4.5625,3.28125t-4.125,3.09375q-0.5625,0.75-0.5625,2.1875q0,1.1875,0.25,2.9375z M198.23375,164.125l-0.125,0.125l1.625-1.5625q-0.375,0.4375-1.5,1.4375q-0.375,0.375-0.875,0.8125t-1.125,0.9375t-0.9375,0.8125q1.4375-0.875,4.25-2.46875t4.1875-2.40625l1.875-1.125l0,0l0-0.0625l0-0.0625l0-0.125l0-0.0625l0-0.0625l0-0.125l0-0.5625q-0.25-1-0.25-1.9375l0-0.625q-2.5,3.125-7.125,7.0625z M208.60875,139.9375l0-0.125l0,0.125z M195.54625,145.8125q1.0625-0.625,3.03125-1.90625t2.96875-1.90625q0.125-0.0625,1.3125-0.625t1.9375-1.0625t0.8125-0.875q-0.75,0.0625-1.65625,0.59375t-1.9375,1.375t-1.46875,1.09375q-0.9375,0.5625-2.6875,1.75t-2.3125,1.5625z M190.17125,139.4375l-0.125,0l0.125,0q-0.8125,0-1.1875,0.4375q-0.125,0.1875-0.25,0.3125q-0.1875,0.1875-0.625,0.5625t-0.625,0.5625q-2.625,2.625-3.875,3.75q4.375-2.9375,9-5.625q-0.125-0.125-0.8125-0.125q-0.25,0-0.84375,0.0625t-0.78125,0.0625z M183.23375,140.0625l0.125,0l0.125,0l-0.25,0q-0.3125-0.0625-0.5625-0.1875l-0.1875-0.0625q-0.125,0-0.375,0.25q-0.1875,0.25-1.3125,1.375q-1.375,1.375-1.375,2.5625q5.0625-3.0625,7.375-4.6875l-0.375,0q-0.1875,0-0.53125-0.15625t-0.46875-0.15625q-0.1875,0-0.375,0.1875q-1.1875,0.875-1.8125,0.875z M179.54625,140.3125l0,0.75q0.375-0.1875,0.375-0.5q0-0.25-0.375-0.625l0,0.375z M183.35875,143l-0.625,0.375q0,0.0625,0.1875-0.03125t0.375-0.21875l0.1875-0.125l-0.125,0q-0.0625,0.0625-0.75,0.40625t-1.15625,0.625t-1.0625,0.6875t-0.9375,0.8125t-0.34375,0.78125q0,0.4375,0.5625,0.8125q0.3125,0,1.15625-0.90625t1.15625-1.40625q0.5625-0.5,1.71875-1.5625t1.71875-1.5625q-0.4375,0.1875-1.15625,0.6875t-0.90625,0.625z M186.79625,148.125q0.3125,0.0625,0.90625-0.21875t1.0625-0.625t1.125-0.8125t0.78125-0.53125q1-0.6875,4.0625-2.5625q4.0625-2.5,7.0625-4.0625l-0.5,0l-0.75,0q-0.4375,0-0.6875-0.125q0.0625,0.3125-0.53125,0.84375t-1.5625,1.09375t-1.90625,1.03125t-1.8125,0.9375t-1.0625,0.53125q-1.125,0.625-3.4375,2t-3.5,2q0.1875,0.0625,0.375,0.25t0.375,0.25z M194.10875,145.1875l-1.25,0.875q0.5-0.25,1.25-0.875q-0.625,0.4375-1.96875,1.28125t-1.96875,1.28125l-0.8125,0.40625t-0.84375,0.53125t-0.28125,0.5625l0,0.25q1.125-0.9375,3.3125-2.46875t2.5625-1.84375z M189.48375,159.375l0.125,0l0.125,0l-0.125-0.125q-0.125,0-0.125,0.125z M189.92125,174.5q-0.125-0.1875,4.5625-3.3125q2.1875-1.625,5.5-4.25q6-4,5.75-4.875q-1.8125,1-5.4375,3.125t-5.4375,3.125q-0.1875,0.125-1.59375,0.875t-2.53125,1.4375t-1.125,0.9375q0.3125,1.5625,0.3125,2.125l0,0.8125z M194.60875,178.0625q-0.3125,0.1875-1.71875,0.8125t-2.21875,1.21875t-1.0625,1.28125q0.3125-0.1875,5-3.3125z M186.79625,189.0625q-1.4375,1.4375-2.25,1.6875l-0.1875,0q-0.125,0-0.34375-0.0625t-0.28125-0.0625q-0.25,0-0.375,0.25q-1.625,2.1875-2.1875,3.0625q2.5-0.875,7.1875-3.8125q2.6875-1.5625,12.3125-7.8125q0.1875-0.125,1.0625-0.84375t1.625-1.1875t1.125-0.40625q0.5,0.1875,0.5,0.5q0,0.4375-0.375,0.625q-0.625,0.5-2.4375,1.8125q-0.875,0.625-2.71875,1.90625t-2.78125,1.90625q5.625-2.6875,6.125-2.9375q0.1875-0.0625,0.59375-0.21875t0.65625-0.25t0.5625-0.28125t0.46875-0.375t0.15625-0.375q0.0625-0.6875,0.375-2.09375t0.3125-2.28125q0-0.5625-0.1875-1.125q-2.6875,1.5625-11.625,7q-0.9375,0.5-2.8125,1.53125t-2.8125,1.53125q-0.125,0.4375-0.21875,0.6875t-0.28125,0.5t-0.28125,0.34375t-0.40625,0.34375t-0.5,0.4375z M182.23375,197l0.375-0.25l-0.375,0.25q3.5625-2,14.1875-8.8125q-6.25,3.0625-9.1875,5q-0.875,0.625-2.65625,1.90625t-2.71875,1.90625l0.375,0z M179.67125,193.9375l0.375-0.5l-0.375,0.5q0.375-0.5,1.09375-1.46875t1.09375-1.46875q-0.1875-0.0625-0.625,0.21875t-0.96875,0.6875t-0.71875,0.46875q0,1.0625,0.125,1.5625z M180.04625,190.625l-0.125,0q-0.375,0-0.375,0.375q0.625-0.1875,0.625-0.375l-0.125,0z M179.67125,196q0.375,0,1-0.625q-0.0625,0-0.21875,0.0625t-0.28125,0.0625q-0.25,0-0.5-0.25l0,0.625l0,0.125z M176.98375,200.0625l0.125-0.125z M185.42125,197.625l-0.125-0.125l0.125,0.125l0.25,0q0.25,0,0.8125,0.09375t0.75,0.09375q0.625-0.4375,1.625-0.4375q0.125,0,0.4375,0.0625t0.4375,0.0625l6.1875-4.6875q6-5.125,7.6875-6.8125q-14.8125,8.8125-19.25,11.375l0.3125,0q0.5,0,0.75,0.25z M196.79625,195.75l-0.375,0.25l0.375-0.25q-0.5,0.3125-1.46875,0.875t-1.46875,0.875q0.75-0.1875,1.40625-0.53125t1.625-1.09375t1.21875-0.9375q-0.1875,0.125-0.65625,0.40625t-0.65625,0.40625z M201.17125,197.5l-0.125,0l0.125,0q0.125-0.125,0.5-0.125l1,0l0.5625,0q0.125-0.125,0.5-0.125q0.1875,0,0.53125,0.0625t0.46875,0.0625q0.875,0.125,4.25-5.75q-1.4375,0.9375-3.09375,1.875t-3.8125,2.09375t-3.21875,1.78125q0.875,0,1.125,0.9375q0.125-0.0625,0.34375-0.28125t0.40625-0.375t0.4375-0.15625z M210.98375,197.25l0.4375-0.25q-0.1875,0-0.4375,0.25q-0.125,0.0625-0.3125,0.1875t-0.3125,0.1875q0.0625,0,0.65625-0.0625t0.65625-0.0625q0.5-0.3125,1.34375-1.09375t0.96875-0.90625q-0.6875,0.4375-3,1.75z M318.655,145.9375l0.125,0.125l-0.125-0.25l0,0.125q0.125,0.125,0.125,0.375q0,0.5-1.4375,1.4375q-0.3125,0.1875-0.6875,0.9375t-0.9375,0.9375q-0.0625,0-0.25,0.09375t-0.25,0.09375q-0.3125,0-1.09375-0.15625t-1.09375-0.15625l-0.25,0q-0.125,0.0625-0.65625,0.4375t-1.0625,0.625t-0.84375,0.25q-0.25,0-0.375-0.125q-0.3125-0.0625-0.9375,0.3125t-1.34375,0.875t-0.96875,0.625q-2.4375,1.6875-4.4375,2.8125q-4.0625,2.375-10,5.625q0.375,0.75,1.9375,2.9375q0.0625,0.0625,0.3125,0.5t0.5,0.75t0.4375,0.25q1.4375-0.9375,1.6875-0.875q0.5,0.1875,0.5,0.5t-1.25,1.5625q1.1875,1.0625,3.1875,4.875q0.125,0.25,0.28125,0.53125t0.375,0.5625t0.34375,0.53125q0.125,0.0625,0.25,0.25q0.375,0.3125,0.75,0.3125q0.375,0.0625,0.6875,0.0625q0.75,0,0.75,0.8125q0,0.625-0.375,0.625q-0.25,0-0.375-0.125q2.4375,3.5,3.0625,4.625q3.125,3.625,4.0625,5.25q0.625,1.25,1.6875,1.625q0.4375,0,1.15625,0.3125t1.03125,0.375l0.375,0l1,0l0.5625,0q0.625,0.0625,1.0625,0.71875t0.59375,1.75t0.21875,2.09375t0.09375,2.125t0.03125,1.375q0,1.875-0.375,2.8125q0,0.0625,0.0625,0.1875t0.0625,0.1875q0,0.8125-0.875,1.25q-0.5,0.625-1.5625,0.625q-0.375,0-0.84375-0.09375t-0.9375-0.21875t-0.65625-0.1875q-0.3125,0.1875-1.4375,0.4375t-1.375,0.25q-1.25,0.5-1.375,0.5l-0.75,0q-1.625-0.1875-3.625-1.0625q-0.1875,0.0625-0.84375,0.34375t-1.1875,0.4375t-0.90625,0.15625q-0.5,0-0.625-0.125q-0.25-0.125-0.875-0.125q-1.1875,0-1.6875-0.125q-0.875-0.4375-1.6875-0.4375q-0.3125,0-0.875,0.0625t-0.875,0.0625q-0.4375-0.0625-1.375,0.375t-1.4375,0.4375l-0.4375,0q-0.5,0-0.75-0.5q-0.25,0.125-0.875,0.125l-0.375,0q-0.125-0.125-0.6875-0.125q-0.375,0-1.15625,0.125t-1.09375,0.125t-1.0625-0.28125t-1.125-0.28125q-1.75,0.4375-2.0625,0.4375l-0.375,0q-1,0.5-1.8125,0.5q-0.0625,0-0.1875,0.0625t-0.1875,0.0625q-0.625,0-0.625-0.75l-0.25,0q-0.375,0-0.8125-0.4375q-0.625-0.25-0.625-1.625q-0.125-0.5-0.125-1.6875t0.25-2.6875q0-0.0625,0.1875-1.25t0.1875-1.6875l-0.125-0.375q-0.9375,0.625-1.25,0.625l-0.125,0q-0.375-0.1875-0.375-0.625t0.375-0.625q0.3125-0.1875,0.53125-0.3125t0.34375-0.21875t0.21875-0.28125t0.15625-0.28125t0.1875-0.4375t0.1875-0.53125q0.5625-1.4375,3.125-1.4375q0.125,0,0.4375-0.0625t0.4375-0.0625q0.25,0,0.5,0.25q0.6875,0.4375,0.75,0.4375t0.15625-0.09375l0.3125-0.3125t0.46875-0.40625q-0.6875-0.25-1.15625-0.96875t-0.9375-1.8125t-0.71875-1.53125q-0.75,0.75-1.6875,0.75q-0.5,0-0.5-0.75q0-0.4375,0.375-1t0.375-0.8125l-0.25-0.5q-0.375-0.6875-1.4375-2.0625l-0.25-0.5l-0.25,0q-0.1875,0-0.3125-0.125t-0.125-0.28125l0-0.34375t-0.0625-0.3125q-0.75-0.75-1-1.25q-0.6875-1.3125-1.6875-2.5625q-0.5,0.375-1.40625,1.46875t-1.53125,1.46875q-0.3125,0.1875-1.15625,0.5625t-1.28125,0.75q0.625,0.1875,0.625,0.625q0,0.375-0.65625,1.125t-0.71875,0.9375q0.125,0.25,0.125,1.25q0,1.0625-0.125,1.4375l0,0.25q0,0.625,0.34375,1.78125t0.40625,1.65625q0.25-0.125,0.75-0.125q0.8125,0,0.8125,0.5l-0.25,0.5q0.375,0.0625,1.28125,0.09375t1.65625,0.1875t1.125,0.53125q0.625,0.625,0.625,2l0,0.9375q0.25,1.25,0.25,2.6875q0,0.75-0.125,1q0,0.8125-0.25,1.8125q0.375,0.1875,0.375,0.5q0,0.6875-0.875,1.125q0,0.0625,0.0625,0.125t0.0625,0.125q0.75-0.375,1.0625-0.375q0.5,0,0.5,0.5625l0,0.25q-0.0625,0.3125-0.75,0.53125t-0.8125,0.46875q-0.625,1.25-3.0625,1.25q-0.3125,0-0.71875,0.1875t-0.9375,0.5625t-0.65625,0.4375q-0.5,0.25-1.125,0.25q-0.6875,0-0.6875-0.25q0-0.1875,0.4375-0.625q-0.5-0.125-1.0625-0.125q-0.375,0-1,0.375q-1.125,0.375-1.3125,0.375l-0.25,0q-0.3125-0.0625-0.65625-0.375t-0.71875-0.25l-0.375,0q-0.8125,0-1.5625-0.25q-0.9375-0.3125-1.4375-0.3125q-0.4375,0-0.625,0.1875q-0.0625,0-0.53125,0.25t-0.71875,0.25l-0.125,0q-0.375-0.125-0.375-0.375q0-0.4375-0.5625-0.4375q-0.5625,0.5625-1.5,0.5625q-0.8125,0-2.3125-0.25q-0.3125,0-1.0625,0.1875t-1.125,0.1875l-0.25,0q-0.1875,0-0.71875-0.125t-0.71875-0.125q-0.0625,0-1.0625-0.21875t-1.4375-0.21875q-0.25,0.125-0.6875,0.125q-0.125,0-0.46875-0.0625t-0.53125-0.0625l-0.25,0q-0.625,0.3125-0.75,0.3125q-0.1875,0-0.625-0.125t-0.5625-0.1875q-0.125,0-0.4375-0.0625t-0.4375-0.0625l-0.125,0q-0.5,0.25-1.0625,0.25l-0.375,0q-0.125,0-0.40625-0.125t-0.46875-0.125q-2.8125,0-2.8125-2.125l0-0.5625q-0.375-1.875-0.375-2.8125q0-0.75,0.125-1q-0.125-0.375-0.125-1.8125q0-2.3125,0.5625-3.90625t1.875-1.09375q0.5625-0.375,1.5-0.375q0.875,0,1.4375,0.375q0.625-0.4375,1.625-0.75q0.125,0,0.34375-0.0625t0.34375-0.0625t0.625,0.25q0.375-0.375,1-0.375l0.25,0q0.0625-0.3125,0.125-0.90625t0.125-0.90625q0-0.0625-0.5625-0.28125t-0.5625-0.59375q0-0.25,0.125-0.5t0.6875-0.8125t0.6875-1q0-0.375,0.21875-1.25t0.21875-1.3125q0-0.0625-0.0625-0.28125t-0.0625-0.34375q-0.125,0.125-0.5625,0.125q-0.5,0-0.5-0.5q0-0.3125,0.375-0.5q0.6875-0.6875,0.6875-1.1875q-0.5625-1.6875-0.5625-3.3125q0-0.9375,0.125-1.1875q-0.25-0.75-0.25-1.25q0-0.75,0.34375-2.1875t0.34375-2.1875t-0.125-1.125q-0.125,0.125-0.5625,0.125q-0.5,0-0.5-0.75q0-0.375,0.125-0.5q0.375-0.5625,0.375-0.8125l0-0.5l0-0.5q-0.125-0.25-0.125-1.0625q0-1.1875,0.25-2.6875q0-2.3125,0.25-3.1875q-0.25-1.25-0.25-2.6875l0-0.5q-0.25-0.625-0.25-2.4375q0-1.3125,0.125-1.8125q0-0.0625-0.0625-0.34375t-0.0625-0.40625q0-0.75,0.25-1.25q-0.25-0.25-0.25-0.9375q0-0.125,0.0625-0.34375t0.0625-0.28125q-0.25-1-0.25-1.6875q0-0.9375,0.3125-2.75t0.3125-2.625q-0.125-0.25-0.125-1q0-0.375,0.0625-1.125t0.0625-1.0625l0-0.5q-0.25-1.5-0.25-2.6875q-0.0625-0.25-0.125-1t-0.15625-1.25t-0.28125-1.09375t-0.5-0.90625t-0.8125-0.375q-0.5625-0.1875-1.4375-0.625q-1,0.25-2.0625,0.25q-0.625-0.25-0.875-0.25l-0.125,0q-0.1875,0-0.5625,0.0625t-0.5625,0.0625q-0.0625,0-0.6875-0.0625t-0.875-0.3125q-0.625-0.75-0.625-3.1875q0-0.625,0.0625-1.6875t0.0625-1.375q-1.5,0.75-1.5625,0.75q-0.25,0-0.5-0.25q-0.125-0.125-0.125-0.375q0-0.3125,1.125-1.4375q0.8125-0.9375,0.9375-1.9375l0-0.75q0-2.8125,2.5625-2.8125q0.625,0,1,0.125l0.25,0q0.25,0,0.375,0.125q0.375-0.25,1.1875-0.25q0.1875,0,0.65625-0.0625t0.71875-0.0625q0.4375-0.0625,1.09375,0.09375t0.96875,0.15625q0.5,0,0.75-0.125l0.375,0q0.5625,0,0.8125,0.125q0.25-0.25,0.625-0.25l0.25,0q0.375,0,0.84375-0.25t0.84375-0.25t1.125,0.25q0.25,0.125,0.78125,0.1875t0.78125,0.1875l0.375,0q1,0,1.125,0.125q0.5625-0.375,1.1875-0.375q0.25,0,0.75,0.25q0.375-0.375,1-0.375q0.4375,0,0.6875,0.125q0.5,0,1.5,0.25q0.375-0.125,0.9375-0.125l1,0q0.5-0.25,2.1875-0.25l0.375,0l0.96875,0t1.46875,0.0625t1.375,0.21875t0.96875,0.59375t0.09375,1.0625q0.125,0.375,0.125,1q0,0.5-0.125,1.53125t-0.125,1.53125q0,0.1875,0.0625,0.53125t0.0625,0.53125q0.875-0.4375,1-0.4375q0.375,0,0.5,0.3125q0.125,0.125,0.125,0.375t-0.25,0.46875t-0.625,0.4375t-0.5,0.34375q0,0.3125,0.0625,0.96875t0.0625,0.96875l0,0.5q0.0625,0.8125-0.21875,2.4375t-0.28125,2.3125q0.25-0.125,0.625-0.125q0.875,0,0.875,0.875q0,0.0625-0.0625,0.25t-0.0625,0.25q-0.1875,0.4375-1.375,1.9375q0,0.375-0.125,0.625l0,0.5625q0,0.375-0.0625,1.1875t-0.0625,1.1875l0,0.6875q0.5-0.25,0.75-0.25q0.5,0,0.5,0.5l0,0.25q-0.125,0.375-0.5,0.78125t-0.375,0.71875q0.0625,0.25,0.125,0.78125t0.125,0.78125q0.25,1,0.25,1.8125q0,0.5-0.0625,1.34375t-0.0625,1.09375q0.25-0.125,0.5-0.125q0.625,0,0.625,0.625q0,0.8125-0.75,1.375q-0.4375,0.4375-0.53125,1.125t-0.21875,0.9375q-0.125,0.125-0.125,0.375q0,0.4375,0.625,0.625l0,0.3125q0,0.25-0.25,0.5t-0.25,0.5l0,0.5q0.125,0.5,0.125,1.6875l0,0.625q0.0625,0.25,0.71875,0.5t0.65625,0.5q0,0.4375-0.375,0.8125t-0.53125,0.59375t-0.1875,0.34375t-0.0625,0.46875t-0.09375,0.71875q0.125,0.25,0.125,0.9375q0,0.8125-0.34375,2.34375t-0.40625,1.96875q0.75-0.5,2.40625-1.40625t2.40625-1.40625q0.3125-0.1875,0.96875-0.84375t1.3125-1.03125t1.34375-0.25q0.5-0.25,1.53125-0.84375t1.53125-0.84375q0.5625-0.25,0.65625-0.8125t0.34375-0.875q0.5-0.625,2.3125-1.25q0.125-0.0625,0.6875-0.4375t0.875-0.4375q-0.0625-0.0625-0.125-0.15625t-0.125-0.15625q-0.125,0.125-0.5625,0.125q-0.25,0-1-0.25q-0.625,0.3125-1,0.4375l-0.25,0q-0.125,0-0.375-0.09375t-0.3125-0.09375q-0.1875,0-0.375,0.1875q-0.125,0.0625-1.0625,0.59375t-1.375,0.53125t-0.625-0.625q-0.5625-0.125-1.5-0.9375t-0.9375-1.5q0-0.25,0.125-0.375q0.4375-0.5625,0.5-1.78125t0.25-1.71875q-0.25-1.5-0.25-3.0625q0-0.875,0.125-1.25q-0.125-0.5-0.125-1.3125q0-2.3125,2.6875-2.6875q0.25-0.125,0.9375-0.125q0.75,0,1.125,0.375q0.5-0.5,1.1875-0.5l0.25,0q0.1875,0,0.375,0.0625t0.25,0.0625q0.25,0,0.5-0.125l0.375,0q0.5625,0,0.8125,0.125q0.25-0.125,0.75-0.125l0.875,0q0.625,0,0.875-0.125q0.125-0.125,0.6875-0.125q0.125,0,1.625,0.375q1.0625-0.625,2.3125-0.625q0.6875,0,0.9375,0.125t0.75,0.125l1,0l0.5,0q0.1875,0.0625,0.59375,0.0625t0.6875,0.0625t0.53125,0.25q1.75,0,2.4375,0.5q0.0625,0,0.25,0.0625t0.25,0.0625q0.3125,0,1.03125-0.125t1.03125-0.125l0.375,0l0.375,0q0.3125,0,0.78125-0.125t0.78125-0.125q0.5625,0,1.71875-0.0625t1.71875-0.0625q1.0625,0,1.6875,0.125q0.875-0.25,2.5625-0.25q1.8125,0,2.5625,0.25q0.1875,0,0.90625-0.0625t0.96875-0.0625q1.125,0,1.9375,1.3125q0.375,0.5625,0.375,2.3125l0,0.375q0.0625,0.4375,0.5625,0.96875t0.625,1.03125q0.1875,0.875-0.5625,2.125t-0.75,1.875q0,0.5,0.125,0.75q1.25-0.625,1.3125-0.625q0.375,0,0.5,0.25z M275.53,190.125l0.125,0l-0.125,0z M275.655,190.125l0.125,0l-0.125,0z M288.3425,159.875q-0.0625-0.1875-3.21875,1.75t-6.9375,4.34375t-3.96875,2.53125q0.125,0,0.375,0.0625t0.3125,0.0625q0.125,0,1.25-0.5625q1.5625-0.875,2.6875-1.375q1.8125-0.9375,4.5-2.8125q2.4375-1.6875,5.5-3.0625q-0.375-0.75-0.5-0.9375z M278.4675,174.125q0.4375-0.4375,1-0.9375t1.25-1.09375t1.0625-0.90625q-0.625,0.375-1.90625,1.125t-1.90625,1.125q0,0.0625,0.09375,0.25t0.21875,0.34375t0.1875,0.09375z M277.03,172.1875l2.3125-1.6875l-2.3125,1.6875q7.125-5.375,12.5625-9.875q-6.125,3.25-8.5625,5.125q-0.3125,0.25-1.4375,1.09375t-1.90625,1.375t-1.53125,0.84375q0.125,0.25,0.4375,0.71875t0.4375,0.71875z M249.53,182.5625l-0.375,0.25q0.125-0.125,0.375-0.25q-0.1875,0.125-0.53125,0.21875t-0.5,0.15625t-0.28125,0.21875t-0.125,0.40625q0.1875-0.1875,0.71875-0.53125t0.71875-0.46875z M255.155,180.625l-1.375,0.75q0,0.0625,0.53125-0.21875t1.0625-0.625t0.53125-0.40625q-0.125,0.125-0.75,0.5q-4.125,2.125-7.0625,4.375q-0.5,0.5-0.5,0.875t0.5,0.375q1.8125,0.125,4.125-1.375q1.375-0.9375,8.4375-5.125q2.0625-1.125,3.4375-2.0625q0.5-0.3125,0.59375-1t0.34375-1.0625q0.375-0.5,1.625-1.25q-8.25,4.3125-11.5,6.25z M253.2175,179.375l1.0625-0.5625q-0.0625,0-0.25,0.125t-0.46875,0.25t-0.34375,0.1875q5.1875-2.8125,7.6875-4.375q-6.4375,3.625-7.6875,4.375z M292.03,155.1875l0-0.1875l0,0.1875l0-1.1875q-2.8125,1.8125-24.4375,16q0.875-0.5,6.09375-3.4375t7.96875-4.5q1.375-0.6875,3.75-2.125t2.8125-1.6875q0.3125-1,1.90625-1.71875t1.90625-1.34375z M268.7175,171.9375l-1,0.5q0.125,0,0.5625-0.21875t0.4375-0.28125z M247.5925,187.5625l0,0.25q0.125,0,0.375-0.25l-0.125-0.125q-0.125,0-0.25,0.125z M250.78,188.0625l-0.125,0.125l1.5625-0.875q-0.4375,0.125-1.4375,0.75q-0.4375,0.25-1.34375,0.75t-1.34375,0.75q6.875-3.125,12.4375-7.125q-2.0625,1.25-9.75,5.625z M256.5925,186.75q-0.9375,0.75-0.9375,0.8125t0.71875-0.34375t1.40625-0.84375t0.6875-0.5q-0.3125,0-1.875,0.875q-10.25,7.5-11,8.0625q1.8125-1.0625,5.59375-3.21875t5.65625-3.28125q1.375-0.75,3.78125-2.15625t2.84375-1.65625q0.25-0.125,0.71875-0.40625t0.71875-0.40625l-0.25-2.5625q-0.4375,0.625-1.09375,1.21875t-1.1875,1.03125t-1.46875,1t-1.375,0.8125t-1.5625,0.84375t-1.375,0.71875z M302.53,148.875l0.75-0.5q-0.125,0-0.4375,0.21875t-0.3125,0.28125q7.375-4.6875,9.1875-5.625q0.75-0.25,0.8125-0.25q0.5,0,0.5,0.5q0,0.875-0.9375,1.8125q0.625-0.4375,1.4375-0.625q0.375-0.1875,0.375-0.3125l0-0.375l0-0.25l0-0.625l0-1.125q-4.0625,1.3125-12.4375,6.25q0.625,0.25,1.0625,0.625z M313.53,138.875q-0.875-0.125-2.8125-0.125q-1.6875,0-2.4375,0.25q-2.1875,0.8125-7.9375,4q1-0.4375,3.03125-1.34375t3.09375-1.34375q0.1875-0.0625,0.8125-0.40625t1.1875-0.5625t0.8125-0.15625q0.5625,0.1875,0.5625,0.375q0,0.8125-2.6875,2.125q-3.4375,2.5625-5.6875,4q-0.6875,0.4375-4.3125,3t-4.9375,3.4375l-4.125,2.75t-5.0625,3.21875t-4.5625,2.59375q-0.3125,0.125-1.25,0.625t-1.46875,0.71875t-1.34375,0.5625t-1.5,0.46875t-1.375,0.0625q-0.4375,0-1.21875,0.625t-1.09375,0.75q-1.5,0.75-1.875,1.125q-0.8125,0.8125-1.5625,0.8125q-0.625-0.0625-1.5625,0.59375t-2.0625,1.71875t-1.375,1.25q-0.8125,0.625-2.46875,2t-2.53125,2q-0.8125,0.625-2.3125,1.90625t-2.25,1.90625q-0.125,0.0625-0.6875,0.46875t-0.9375,0.71875t-0.71875,0.71875t-0.34375,0.65625q6.3125-3.375,13.21875-7.8125t15-9.9375t12.84375-8.5q13.8125-8.5625,16.125-9.75q4.4375-2.3125,5.875-2.8125q0.5625-0.3125,2.1875-0.875q0.25,0,0.25-0.625q0-1.1875-0.5-1.1875z M272.03,161.6875q0,0.125,0.3125,0.125q0.4375,0,1.71875-0.46875t1.46875-0.65625q3.5-1.5625,8.1875-4.5q8-5.0625,19.3125-13.0625q-4.9375,2.125-9.75,4.5q-3.5625,1.6875-9.1875,5.625q-1.6875,1.25-2.0625,1.75q-0.1875,0.4375-0.875,0.4375l-0.25,0q-0.6875,0.5-3.3125,2.8125q-1.4375,1.625-3.125,2.5625q-0.375,0.25-1.28125,0.46875t-1.15625,0.40625z M279.9675,154.5l-0.125,0l0.125,0l-0.125-0.25l-0.25,0.25q0.125,0.125,0.25,0.125z M264.655,156.4375q0-0.25,0.125-0.375q-1.25,0.9375-3.9375,2.875t-4.3125,3.125t-3.71875,3.03125t-3.65625,3.53125q1.625-0.9375,4.9375-2.90625t4.9375-2.90625q1-0.5,2.59375-1.46875t2.09375-1.21875q0.6875-0.375,0.78125-1.9375t0.15625-1.75z M264.28,161.6875q-0.875,0.6875-12.1875,10.5q3.625-2.375,10.25-6.125q0.3125-0.125,1.03125-0.46875t1.03125-0.46875q-0.125-0.5-0.125-1.625l0-1.8125z M280.78,138.75q-0.125-0.125-0.375-0.125q-0.1875,0-0.3125,0.125q0.3125,0.125,0.3125,0.6875q0,0.3125-0.34375,0.9375t-0.34375,0.6875q-0.1875,0.375-0.71875,1.21875t-0.75,1.28125t-0.4375,1.15625t-0.21875,1.46875q1.875-1.0625,3.90625-2.28125t4.53125-2.84375t3.8125-2.4375q-0.5625,0-1.8125,0.25l-0.75,0q-0.375,0-0.75,0.125q-0.625,0.3125-1.1875,0.3125q-0.375,0-0.625-0.125q-0.9375-0.3125-1.25-0.3125q-0.25,0-0.78125,0.0625t-0.78125,0.0625q-0.375,0-1.125-0.25z M277.405,139.8125l0.1875-0.125l-0.1875,0.125q0.1875-0.0625,0.53125-0.25t0.53125-0.25q-0.75-0.25-1.0625-0.5625q-0.125,0-0.125,0.25q0,0.125,0.0625,0.4375t0.0625,0.375z M277.5925,142.125q0.125,0,0.3125-0.28125t0.40625-0.71875l0.28125-0.5625q-0.6875,0.4375-0.8125,0.59375t-0.125,0.65625q-0.0625,0.1875-0.0625,0.3125z M286.03,149.375q0.125,0,0.125,0.25q3.125-1.5,9.40625-5.28125t9.65625-5.34375q-0.375-0.0625-1,0.3125t-1.0625,0.375q-0.75-0.125-2.4375-0.125l-0.625,0q-1.625,0-2.9375,1q-7.3125,4.3125-12.0625,6.8125q0.125,0.1875,0.40625,0.5t0.40625,0.5q0.125,0.125,0.125,0.5l0,0.5z M264.78,150.3125l-0.125,0l0.125,0q-0.125-0.125-0.125-0.375q-0.25,0.1875-5,3.3125q0.1875-0.125,1.625-0.875t2.1875-1.0625q0.1875-0.0625,0.5-0.1875t0.40625-0.1875t0.21875-0.21875t0.1875-0.40625z M264.405,129.8125q0,0.125-2.15625,1.34375t-4.625,2.59375t-2.84375,1.5625q-0.9375,0.5625-2.75,1.65625t-2.75,1.65625q-0.4375,0.25-0.6875,0.4375t-0.375,0.5t-0.15625,0.40625t-0.0625,0.6875t-0.03125,0.78125q6-4.875,11.0625-7.8125q2.4375-1.25,3.0625-1.375q1-0.375,1.75-1q0.25-0.1875,0.34375-0.34375t0.125-0.25t0.03125-0.375t0.0625-0.46875z M264.905,138l-0.5,0.375l0.5-0.375q-1.5625,1.0625-4.875,3.6875q0.25-0.1875,1.59375-0.9375t2.28125-1.46875t1-1.28125z M247.8425,149l1.6875-1.25q-1.6875,1.125-1.6875,1.25q2.125-1.5,6.34375-4.5625t6.34375-4.625q-7.1875,4.3125-10.5,6q-0.875,0.5-1.9375,0.875q-0.375,0.1875-0.375,1.4375q0,0.25,0.0625,0.5625z M247.9675,144.8125l0.125-0.125q-0.125,0-0.125,0.125q1.6875-1.4375,5.21875-3.8125t4.40625-3q0.1875-0.125,1.375-0.9375t1.71875-1.1875t1.3125-1.09375t1.21875-1.40625q-0.1875-0.0625-0.53125,0.15625t-0.65625,0.4375t-0.75,0.5625t-0.5,0.40625q-0.5625,0.4375-1.84375,1.25t-1.46875,0.9375q-0.5625,0.375-2.53125,1.65625t-3.09375,1.90625q-1.9375,1.0625-3.3125,1.9375q-0.6875,0.375-0.6875,1q0,0.1875,0.0625,0.59375t0.0625,0.59375z M248.405,133.5l0.25-0.25l-0.25,0.25q1.1875-1.3125,2.78125-2.75t2.75-2.34375t3.28125-2.5t2.9375-2.21875q-0.875,0.5-2.53125,1.4375t-3,1.71875t-2.53125,1.53125q-2.8125,1.5625-3.5625,2.0625q-0.4375,0.1875-0.4375,1.0625q0,0.3125,0.15625,1.03125t0.15625,0.96875z M248.28,128.6875q2.125-2.1875,9.4375-8.375q-5.8125,3.6875-8.3125,4.875q-1.375,0.6875-1.9375,0.6875l-0.25,0q0.125,0.75,0.75,3.0625q0.0625,0,0.3125-0.25z M248.28,152.875l0-0.125l0,0.125q-0.0625-0.1875,1.65625-1.53125t3.75-2.875t2.21875-1.65625q1.375-1.1875,4.0625-3.25t3.5-2.75q-1.9375,1.25-5.4375,3.75t-4.9375,3.4375q-0.1875,0.125-0.8125,0.59375t-1.03125,0.75t-1.03125,0.625t-1.1875,0.53125t-1.0625,0.1875q0.3125,1.25,0.3125,2.1875z M247.9675,159.75l0,0.375q1.25-1,3.59375-2.65625t3.09375-2.15625q-1.875,1.125-3.875,2.125q-0.375,0.25-1.125,0.71875t-1.125,0.71875q-0.1875,0.0625-0.28125,0.15625t-0.09375,0.125t-0.0625,0.21875z M255.905,158.375q-2.4375,1.5625-4.9375,3.4375q0.8125-0.5,2.53125-1.75t2.40625-1.6875z M248.28,156.0625l2.8125-1.8125q0-0.0625-0.6875,0.375t-1.375,0.90625t-0.75,0.53125q5.1875-3.3125,9.9375-6.5625q1.25-0.75,4.5-3.0625q1.8125-0.9375,1.9375-1.375q-5.75,3.25-9.625,5.625q-0.8125,0.5-2.46875,1.53125t-2.53125,1.53125q-0.1875,0.125-0.625,0.40625t-0.5,0.34375t-0.25,0.3125t-0.25,0.5t-0.125,0.75z M264.53,148.125l-0.25,0.125l0.25-0.125q-1.5625,0.9375-1.8125,1.125q0.0625-0.0625,0.53125-0.28125t0.875-0.46875t0.40625-0.375z M256.3425,148.5l1.625-1l-1.625,1q5.6875-3.4375,6.125-3.6875q0.375-0.1875,1.15625-0.65625t1.15625-0.65625q0-0.375,0.0625-1.125t0.0625-1.1875q-5.5,4.5-10.375,8.3125q0.8125-0.5625,1.8125-1z M251.9675,143.375l1.5-0.875q-1.125,0.625-1.5,0.875q4.0625-2.1875,7.0625-4.0625q0.4375-0.25,1.84375-1.1875t2.21875-1.375q0.0625-0.0625,0.4375-0.25t0.46875-0.28125t0.25-0.3125t0.15625-0.46875q-0.125-0.25-0.125-1l0-0.375q-0.4375,0.625-1.03125,1.1875t-1.65625,1.34375t-1.1875,0.90625q-1.4375,1.0625-8.4375,5.875z M256.4675,132.875l1.125-0.625l-2.0625,1.125q0.3125-0.125,0.9375-0.5q3.6875-2.1875,6.125-3.5625q0.3125-0.25,1-0.625t0.8125-0.4375l0-0.625l0-1.125q-5.75,4.4375-9.875,6.875q-0.0625,0.0625-2.0625,1t-2.96875,1.6875t-1.21875,1.6875q1.3125-0.8125,4.09375-2.40625t4.09375-2.46875z M264.905,121.875l0-0.25q-9.25,7.25-10.375,8.1875q-0.3125,0.25-1.09375,0.84375t-1.21875,0.9375t-1.0625,0.875t-1.09375,1.0625t-0.90625,1.03125q0.4375,0,0.90625-0.25t1.09375-0.78125t0.8125-0.65625q0.625-0.4375,1.90625-1.34375t1.90625-1.34375q3.8125-2.5,6.6875-4.0625l0.5-0.25t0.53125-0.3125t0.40625-0.3125t0.40625-0.40625t0.21875-0.53125q0.125-0.375,0.1875-1.21875t0.1875-1.21875z M251.5925,127.25q1.4375-0.8125,4.25-2.40625t4.1875-2.46875q2.3125-1.375,4.375-2.5625q0.375-0.1875,0.375-0.875q0-0.3125-0.125-1.125t-0.125-1.1875l0-0.25q-6.5625,5.375-12.9375,10.875z M264.53,114.3125q-0.75,0.3125-2.03125,1.3125t-1.46875,1.125z M246.4675,114.9375l-0.25,0.1875l0.25-0.1875q-0.1875,0.1875-0.375,0.1875t-0.59375-0.15625t-0.59375-0.15625q-0.4375,0-0.625,0.3125q-0.375,0.625-1.375,1.875q-0.5,0.875-1.65625,2.40625t-1.34375,1.84375q0.75-0.0625,1.46875-0.34375t1.21875-0.5625t1.3125-0.78125t1.25-0.75q1.125-0.75,3.40625-2.09375t3.40625-2.03125q-1.25-0.5-1.5625-0.5l-0.25,0q-0.75,0-1-0.125q-0.5,0.25-0.75,0.25q-0.3125,0-0.5625-0.125q-0.1875,0.3125-0.34375,0.40625t-0.5,0.1875t-0.53125,0.15625z M239.155,114.5625l-0.125,0l0.125,0q-0.125,0.0625-0.25,0.03125t-0.28125-0.09375t-0.21875-0.0625q-0.125,0-0.125,0.125q0,0.0625,0.0625,0.25t0.0625,0.3125q0.125,0,0.4375-0.25t0.3125-0.3125z M238.53,120.875l0,0.125q0.0625,0,0.5-0.8125q0.1875-0.25,0.71875-0.875t0.71875-0.875q1.25-1.6875,2.125-3.0625q-0.125,0.125-1.21875,0.65625t-1.96875,1.09375t-0.875,0.8125q0.125,0.25,0.125,1.375q0,1.1875-0.125,1.5625z M242.7175,121.75l0.6875-0.375q-0.1875,0.125-0.6875,0.375q0.875,0.5,3,1.5625q0.25,0.0625,0.46875,0.28125t0.40625,0.21875q0.25,0,0.375-0.125q0.75-0.375,0.875-0.5q0.625-0.3125,2.3125-1.4375q1.9375-1.1875,5.34375-3.65625t4.78125-3.40625l-0.375,0q-0.625,0-0.75-0.125q-0.25,0.125-0.9375,0.125q-0.125,0-0.4375,0.0625t-0.4375,0.0625q-0.25,0-0.75-0.25q-0.25,0.125-0.8125,0.125q-0.125,0-0.46875-0.0625t-0.53125-0.0625q-0.4375,0-1,0.375q-4.5,2.875-11.0625,6.8125z M249.53,161.4375l-0.625,0.5q0.25-0.125,0.625-0.5l-0.5625,0.375t-0.5,0.34375t-0.25,0.34375t-0.125,0.625q0.0625,0.1875,0.21875,0.6875t0.21875,0.6875q0.125,0.375,0.125,1l0,1.1875l0,0.625q2.25-2.25,6.875-5.875q0.875-0.75,2.65625-2.09375t2.71875-2.03125q0.125-0.125,1.34375-0.875t1.90625-1.375t0.625-1.1875q-2.4375,1.5-6.75,4.5625t-6.4375,4.375q-0.125,0.0625-0.5,0.3125t-0.625,0.40625t-0.625,0.3125t-0.6875,0.15625q-0.875,0-0.875-0.625q0-0.4375,0.46875-1.0625t0.78125-0.875z M248.405,173.4375q0,0.125,0.125,0.125t0.4375-0.28125t0.6875-0.625t0.5-0.46875q1.75-1.375,3.875-3.3125q3.6875-3.1875,5.875-5l-7.6875,4.3125q-0.625,0.375-1.90625,1.15625t-1.90625,1.15625q-0.3125,0.125-0.3125,0.6875q0,0.3125,0.15625,1.03125t0.15625,0.96875l0,0.25z M261.28,168.0625q-2,0.9375-2,1.3125q0.875-0.4375,2-1.3125q-5.625,3.25-8.5625,5.125q-4.0625,2-4.1875,2.5625q0.125,0.625,0.125,1.8125l0,0.75q0.8125-0.6875,5.46875-4.5t7.15625-5.75z M242.5925,190.125l-0.125,0l0.25,0l-0.125,0q-0.0625,0-0.1875,0.0625t-0.1875,0.0625q-0.1875,0-0.46875-0.125t-0.40625-0.125t-0.25,0.125q0.1875,0.3125-0.28125,1.03125t-1.125,1.46875t-0.78125,0.9375q1.1875-0.8125,4.875-3.3125l-0.375,0q-0.6875,0-0.8125-0.125z M239.905,197q0.125,0,0.125-0.125l-0.25,0l0.125,0.125q0.375-0.125,0.71875-0.15625t0.59375-0.125t0.625-0.46875q1.125-0.9375,2.0625-1.6875q0.875-0.75,2.71875-2.125t2.78125-2.0625q-1.4375,0.75-9.375,4.3125q-0.125,0.0625-0.59375,0.28125t-0.78125,0.28125q-0.375,0.1875-0.375,0.375l0.0625,0.1875q0.0625,0.1875,0.0625,0.4375q0,0.375,0.25,0.5t0.65625,0.15625t0.59375,0.09375z M245.7175,197.125q0.5-0.25,0.625-0.25q0.375,0,0.625,0.25q0.0625-0.125,0.25-0.375t0.25-0.375q1.0625-1.375,3.0625-2.9375q-1.3125,0.75-6,3.4375l0.25,0q0.4375,0,0.9375,0.25z M255.905,197l0.125,0l-0.125,0q0.125-0.125,0.5625-0.125q0.375,0,1.09375,0.1875t1.03125,0.1875q0.6875,0,0.8125-0.25q0.3125-0.375,0.9375-1.15625t0.9375-1.15625q0.75-0.875,2.15625-2.625t2.09375-2.625q-1.0625,0.6875-3.3125,1.84375t-3.3125,1.90625q-2.875,2-6.0625,3.9375q0.1875,0,0.59375-0.1875t0.59375-0.1875q0.0625,0,0.1875,0.0625t0.1875,0.0625q0.375,0.125,0.75,0.125l0.75,0z M270.53,193.9375l0.125,0.25l-0.125-0.25q0.125,0.125,0.125,0.375q0,0.4375-0.5,1t-1.25,1.15625t-0.8125,0.65625q0.5625,0.1875,1.84375-0.4375t1.34375-1.1875q0-0.4375,0.125-1.40625t0.125-1.40625q-0.75,0.5625-1.375,0.875z M267.7175,189.5625l-0.125,0l0.125,0q-0.5625-0.0625-1.1875,0.5625t-1.375,1.6875t-0.875,1.25q-0.5,0.625-1.5625,1.84375t-1.5625,1.84375q6.375-4.5625,6.6875-4.75q1.875-1.125,2.8125-1.125q0.625,0,0.875,0.25q0.0625-0.6875-0.40625-1.03125t-0.96875-0.4375t-1.3125-0.09375l-1.125,0z M265.655,187.1875q0.125,0,0.125-0.4375q0-0.75-0.5-1.75q-3.8125,2.25-5.8125,3.4375t-5.0625,3.4375t-5.125,4.375q9.375-5,16.375-9.0625z M281.03,177.9375q0.0625,0.0625,4.75-4.03125t5.375-4.78125q-1.9375,1.125-5.8125,3.34375t-5.75,3.40625q0.1875,0.3125,0.75,1t0.6875,1.0625z M294.0925,168.3125l-1.0625,0.9375q1.0625-0.8125,1.0625-0.9375q-6.625,5.5625-9,7.8125q-1.9375,1.75-3.1875,3.125q0.25,0.25,0.375,0.25q0.1875,0,0.40625-0.1875t0.5-0.4375t0.40625-0.3125q0.5625-0.375,2.84375-1.96875t3.3125-2.28125t2.84375-1.71875t3.375-1.59375q-0.1875-0.625-0.9375-1.5t-0.9375-1.1875z M282.78,180.5l0.3125-0.125q-0.1875,0-0.3125,0.125q0.9375,1.625,1.4375,2.8125q0.1875,0.0625,0.40625,0t0.59375-0.4375l0.65625-0.65625l0.59375-0.59375l0.3125-0.375q5.75-5.75,8.6875-8.5625q-1.5625,0.75-3.375,1.8125t-3,1.84375t-3.3125,2.1875t-3,1.96875z M282.405,196.875q2.625-2.1875,7.875-6.46875t7.875-6.46875q-3.4375,2-9.3125,5.375q-1,0.5625-3.03125,1.8125t-3.03125,1.8125q-1.3125,0.875-1.875,0.875q-0.625,0-1.3125-0.5q-0.25,1-0.25,2.0625q0,0.25,0.0625,0.71875t0.0625,0.65625l0.5,0q0.3125,0,1.03125,0.125t1.03125,0.125q0.0625,0,0.1875-0.0625t0.1875-0.0625z M289.2175,197q1.625,0.0625,2.5-0.375t2.25-1.8125q1.8125-1.875,5.625-5.5q-2.25,1.25-6.78125,3.875t-6.78125,3.9375q0.375,0,1.25-0.0625t1.3125-0.0625l0.625,0z M301.655,196.5l0.25-0.125l-0.25,0.125q0.125-0.125,0.375-0.125q0.1875,0,0.40625,0.125t0.34375,0.125q0.3125,0,0.5-0.375q0.1875-0.25,0.59375-0.78125t0.59375-0.78125q1.5625-2.125,2.25-3.3125q-1.4375,0.9375-4.25,2.9375t-4.1875,2.9375q0.0625,0,0.1875,0.0625t0.1875,0.0625q0.5,0,1.4375-0.625q0.3125-0.125,0.84375-0.15625t0.71875-0.09375z M314.155,193.1875q-0.5,0.25-1.3125,1.1875t-1.125,1.25q0.125-0.125,0.90625-0.5t1.21875-0.75t0.4375-0.8125q0-0.0625-0.0625-0.1875t-0.0625-0.1875z M307.905,197.25l0.125-0.125l-0.125,0.125q0.25-0.25,1-0.75q-1.125,0.5625-1.125,0.75l0.125,0z M312.655,196.625q0.1875,0,0.46875,0.0625t0.40625,0.0625q0.5,0,0.5-1q-0.3125,0.125-0.84375,0.46875t-0.53125,0.40625z M305.2175,184.1875q-0.25-0.1875-0.5625-0.5t-0.65625-0.8125t-0.46875-0.6875q-0.375-0.5625-0.5-0.5625q-0.0625,0-0.5,0.4375q-4.9375,4-5.75,4.6875q-2.125,1.6875-6.15625,4.96875t-5.53125,4.53125q2.3125-1.3125,6.84375-3.9375t6.84375-4q0.8125-0.4375,2.46875-1.40625t2.53125-1.40625q0.125-0.125,0.4375-0.125q0.5,0,0.5,0.5l0,0.125q0,0.25-0.25,0.5625t-0.65625,0.59375t-0.53125,0.40625q-1.125,1-3.4375,3.3125q-4.0625,3.875-6,5.875l0.5,0q0.6875,0,2.1875,0.25q0.75-0.5,4.6875-3.3125q0.5625-0.375,2.78125-1.96875t3.53125-2.15625q0.125-0.125,0.5-0.125q0.625,0,0.625,0.8125q0,0.375-0.125,0.5q-0.3125,0.8125-0.84375,1.71875t-1,1.5t-1.25,1.59375t-1.09375,1.4375q3.8125-2.3125,6.25-3.5625q0.5-0.3125,1.53125-0.96875t1.53125-0.96875q0.25,0,0.25-0.125l0-0.125l-0.125-0.5l0-0.25l-0.125,0l-0.375,0q-1.375-0.125-3.0625-0.90625t-2.3125-1.78125q-0.1875-0.25-0.90625-1.09375t-1.125-1.4375t-0.65625-1.09375z M302.155,180.125q-1.125-1.125-1.9375-3.0625q-1-0.8125-1.125-0.8125q-0.25,0-1.1875,0.5625q-0.75,0.4375-2.125,1.28125t-2.0625,1.28125q-1,0.625-3,1.9375t-2.9375,1.875q-0.1875,0.0625-0.625,0.34375t-0.875,0.625t-0.375,0.46875q0.375,0.375,0.75,1.5q0,0.125,0.0625,0.3125t0.0625,0.3125q0,2.375-3.4375,3.75q-0.25,0.125-1.1875,0.125q-1.625,0-2.3125-0.5q0,0.25-0.0625,0.625t-0.0625,0.5q0,0.375,0.375,0.75q0.5625,0.5625,0.6875,0.5625l0.125,0q0.3125-0.1875,0.875-0.53125t0.875-0.53125q1.25-0.6875,3.78125-2.125t3.78125-2.1875q0.125-0.0625,0.65625-0.34375t1.25-0.6875t1.625-0.90625t1.875-1.03125t1.9375-1.09375t1.8125-1.0625t1.46875-0.90625t1-0.6875t0.3125-0.34375z M298.28,174.875q-0.9375-1.1875-1.25-2.0625q-5.625,5.625-8.4375,8.3125q8-4.9375,9.9375-6z M292.28,166.1875q-0.1875-0.1875-2.0625-2.8125q-2.75,2.4375-6.875,5.5q1.125-0.5625,3.21875-1.8125t3.15625-1.8125q0.125-0.125,0.375-0.125q0.625,0,0.625,0.6875q0,0.125-0.25,0.375q-0.625,0.5-1.96875,1.46875t-1.96875,1.46875q-2.25,1.6875-6.125,4.875q7.1875-4.125,12.375-7.1875q-0.375-0.375-0.5-0.625z M291.78,159.75l1.5-0.875q-1.375,0.75-1.5,0.875q8.8125-4.875,14.5625-8.5625q-0.25,0-0.78125,0.25t-0.84375,0.25q-0.4375,0-0.875-0.25t-0.5625-0.25q-0.25,0-0.375,0.125q-0.3125,0.1875-1.34375,0.75t-1.46875,0.84375t-1.125,0.8125t-1.1875,1.15625q-1.9375,2.1875-3.6875,2.6875q-0.5,0.1875-0.875,0.53125t-0.78125,0.875t-0.65625,0.78125z M405.76375,175.5l0,0.125l0-0.125q0.25,0.5,0.25,0.75q0,1.1875-2,2.875q-0.0625,0.1875-0.3125,0.96875t-0.375,1.15625q-0.1875,0.4375-0.84375,1.1875t-0.78125,1.125q-0.0625,0.5625-0.71875,1.75t-0.71875,1.3125q-0.0625,0.3125-0.1875,1t-0.25,1.03125t-0.4375,0.78125t-0.875,0.6875q-0.5625,0.3125-1.84375,1.4375t-2.03125,1.5q-0.375,0.1875-1.125,0.53125t-1.0625,0.46875q0.375,0.5625,0.375,1.4375q0,1-0.75,1q-0.9375,0-1.375-0.875q-0.5625,1-1.5625,1q-0.125,0-0.4375-0.0625t-0.4375-0.0625q-0.3125,0-0.8125,0.25q-0.1875,0.125-1.3125,0.78125t-1.625,1.03125q-0.125,0.125-0.5,0.125l-0.5,0l-0.375,0q-0.4375,0.125-1.09375,0.75t-1.09375,0.75q-1.75,0.4375-2.0625,0.4375q-0.5,0-0.75-0.125q-0.1875,0-0.40625-0.09375t-0.34375-0.09375q-0.1875,0.0625-0.4375,0.1875q-0.625,0.625-2.125,0.625l-1.5625,0l-0.75,0q-0.375,0.125-1.9375,0.125q-0.375,0.125-2.3125,0.125q-0.4375,0-1.34375-0.125t-1.34375-0.125q-0.875,0-1.25,0.25q-0.375,0.375-1.1875,0.375q-0.5,0-0.5-0.5q0-0.375,0.125-0.625q-0.25,0-0.75-0.3125t-0.75-0.25l-0.3125,0q-0.1875,0-0.65625-0.0625t-0.59375-0.0625q-0.5625-0.1875-1.71875-0.4375t-1.71875-0.4375q-0.6875-0.125-3.25-1.25q-2.375-0.875-3.3125-1.8125q-6.6875-3.0625-9.5625-8.5625q-0.3125-0.625-1.09375-1.9375t-1.375-2.46875t-0.90625-2.15625q-0.875-0.875-0.875-2.8125l0-0.375q-0.5-1.5-0.5-2.9375q-0.5-1.6875-0.5-4.625l0-1.25q-0.375,0.125-1.15625-0.21875t-0.78125-0.71875q0-0.3125,0.375-0.5q0.125-0.125,0.65625-0.375t0.65625-0.375q0.375-0.125,0.375-1.4375l0-1.375l0-0.5l0-0.9375q0-1.8125,0.125-2.4375l0-0.625q0-1.5625,0.5-3.0625q0.1875-0.5,0.8125-1.71875t0.75-1.84375l0-0.25q0-0.4375,0.5-1.9375q0-0.0625,0.15625-0.71875t0.375-0.9375t0.59375-0.53125l0-0.25q0-0.5,0.59375-0.9375t0.59375-0.75l0-0.25q0-0.25,0.125-0.4375t0.375-0.40625t0.375-0.40625q0-0.4375,1.6875-1.6875q0.5-0.375,0.5-0.625l0-0.125q0-0.25,0.25-0.5q0.1875-0.375,0.75-0.5625q0.625-0.0625,1.21875-0.8125t0.84375-0.9375q1.875-1.0625,2.5625-1.5625q0.25-0.25,3.0625-1.625q0.125-0.0625,1.25-0.5625t1.5625-0.5q0.25,0.25,0.5,0.25t0.25-0.125q0.375-0.375,0.8125-0.375l0.25,0q0.1875,0,0.25-0.09375t0.125-0.3125t0.125-0.34375q0.625-1.3125,1.6875-1.3125q0.375,0,0.875,0.25q0.9375-0.625,2.3125-0.625q0.375,0,1.15625,0.0625t1.15625,0.0625l0.125,0q0.125,0,0.40625-0.0625t0.46875-0.0625q0.25,0,0.5,0.25q0.375-0.375,0.9375-0.375q0.25,0,0.375,0.125q0.3125-0.0625,0.96875-0.46875t1.03125-0.40625q0.4375,0,0.6875,0.125q0.5,0,1.5625,0.375t1.625,0.375q0.75,0,2.9375,0.625q0.125,0,0.375-0.0625t0.375-0.0625q0.5,0,1.5625,0.1875t1.5,0.1875q2.75,0,3.5,1.0625q1,0.25,1.125,0.25q0.25,0,0.75-0.25q0.125-0.125,0.4375-0.125q0.125,0,0.34375,0.15625t0.40625,0.21875q0.4375,0.0625,0.46875,0.5t0.40625,0.5q0.75,0,2.1875,0.84375t2.1875,1.59375q1.5,0.625,1.625,0.625q0.25,0.0625,0.75,0.71875t0.8125,0.84375q0.25,0.0625,0.375,0.15625t0.125,0.15625l0,0.0625l0.5-0.25q0.5-0.5,0.8125-0.5q0.25-0.125,0.5-0.125t0.25,0.375q0,0.6875-0.5,1.6875q0.25,0.3125,1.21875,1.1875t1.34375,1.5q0.5625,0.375,0.90625,1.21875t0.65625,2t0.5,1.59375q1.25-0.8125,1.5-0.75q0.5,0.1875,0.5,0.75q0,0.6875-0.5,1.6875q-0.25,0.375-0.25,0.875q0,0.0625,0.5,1.3125q0.1875,0.25,0.3125,0.625t0.28125,0.8125t0.21875,0.625q0.0625,0.25,0.28125,0.375t0.34375,0.375q0.125,0.125,0.125,0.25t-0.125,0.375t-0.125,0.375q0.5,0.75,0.5,1.6875q0.625,1.25,0.625,3.4375q0,0.625-0.0625,1.84375t-0.0625,1.78125l0,0.875q0.25,1.5,0.25,2.4375q0,2-0.75,5.875q0.0625,0,0.1875-0.0625t0.1875-0.0625q0.4375,0,0.625,0.375z M373.13875,197.8125l1.125-0.6875q-1.125,0.5625-1.125,0.6875q6.75-3.5625,15.875-10.25q-9.125,4.6875-18.4375,10.375l0.25,0q0.25,0,0.8125-0.15625t0.875-0.15625q0.25,0,0.625,0.1875z M398.32625,182.8125q0,0.25-0.9375,0.90625t-2.09375,1.375t-1.28125,0.78125q-3,2.25-5.75,4q-5.75,3.875-8.75,6.875q0.0625,0,0.21875,0.0625t0.21875,0.0625q0.4375,0,1.375-0.5625t1.3125-0.6875q0.5625-0.375,1.78125-1.09375t1.78125-1.09375q1.875-1.25,3.5625-2.1875q0.4375-0.25,1.28125-1.125t1.40625-1.0625q0.4375-0.125,1.28125-0.625t1.40625-0.625q1.25-0.4375,1.6875-1.3125q0.125-0.375,0.75-1.625q0-0.5625,0.625-1.1875q0-0.625,0.125-0.875z M399.13875,178.3125l0.125-0.125l-1.0625,0.625q0.3125-0.125,0.9375-0.5q0.1875-0.125,0.65625-0.34375t0.6875-0.34375t0.5-0.40625t0.34375-0.65625q0.125-0.1875,0.1875-0.75t0.1875-0.8125q0-1.0625,0.625-2.9375q-1.6875,0.75-3.6875,1.90625t-2.9375,1.78125t-3.6875,2.53125t-3,2.09375q-0.4375,0.3125-2.4375,1.84375t-3.375,2.375t-2.75,1.28125q-0.0625,0-0.1875,0.0625t-0.1875,0.0625q-0.5,0-0.6875-0.375l-0.125-0.125l-0.5,0.375q0.375,0.375,0.375,1.5625q-0.25,0.75-1,0.75l-0.25,0q-0.1875,0.125-0.3125,0.5t-0.1875,0.5q-0.375,0.8125-1.1875,0.8125q-0.4375,0-0.875-0.4375q-0.625,0.3125-1.0625,0.3125q-0.375,0-0.75-0.5625q-0.25,0-0.5625,0.25t-0.53125,0.5t-0.5,0.6875t-0.34375,0.5q-3,3.75-4.3125,5.875q1.5625-0.9375,4.46875-2.375t4.09375-2.0625q5.9375-3.8125,8.3125-5.25q12.5-7.6875,15-9.125z M358.13875,196.375q5.875-3.4375,9.875-5.625q-0.375-0.1875-1.5625-0.28125t-1.625-0.59375q-0.1875-0.125-0.9375-0.65625t-1.125-0.90625q-0.4375-0.125-0.875-0.5t-0.6875-0.6875t-0.6875-0.9375t-0.5625-0.8125q-1.25,0.9375-1.6875,1.375q0.25-0.125,0.5625-0.125q0.375,0,0.375,0.375q0,0.6875-0.625,1.3125q-0.5,0.375-1.40625,1.1875t-1.03125,0.875q-2.9375,2.625-3.875,3.6875q0.4375,0.25,1.75-0.53125t2.84375-1.9375t1.84375-1.34375q1.375-1.125,2-1.3125q0.125-0.125,0.6875-0.125q0.75,0,0.75,0.5q0,0.25-0.125,0.375q0,0.4375-0.375,1.09375t-1,1.5t-0.6875,0.90625q-0.75,1.4375-1.8125,3.1875z M351.13875,193.4375q0.125,0.0625,0.65625-0.46875t1.15625-1.21875l0.625-0.75q-1.1875,0.875-3.0625,2.0625q0.5,0.25,0.625,0.375z M343.70125,187.8125l0.5-0.375q-0.125,0-0.3125,0.15625t-0.1875,0.21875q0.9375-0.625,2.84375-1.9375t2.90625-1.9375q-1,0.5625-3,1.75t-3,1.75l-0.125-0.125z M338.82625,178.4375q0,0.125,0.125,0.125q0.1875,0,0.625-0.6875t0.4375-0.8125q0.5625-0.4375,1.78125-1.125t1.40625-0.8125q-0.0625,0-1.3125,0.625t-1.875,0.625q-0.5625,0-0.6875-0.125q-0.25-0.125-0.25-0.5t0.5-0.875q3.4375-2.6875,4.125-3.3125l8.0625-6.5625q-1.8125,1.0625-5.375,3.125t-5.375,3.0625q-0.1875,0.125-1.03125,0.53125t-1.375,0.8125t-0.53125,0.78125q0.0625,0.5625,0.28125,1.625t0.34375,1.90625t0.125,1.59375z M338.20125,158.75q-0.0625-0.25,1.28125-1.1875t3-1.96875t1.71875-1.09375q0.625-0.4375,10.75-7q0.5-0.375,4.46875-3.09375t5.90625-4.21875q4.1875-3.125,5.5-4.625q-0.375-0.25-1.15625,0.1875t-1.8125,1.25t-1.09375,0.875q-1.125,0.6875-2.9375,2.03125t-2.4375,1.78125q-10.8125,7.625-11.5625,8.125q-5.1875,3.4375-8.0625,4.4375q-0.125,0-0.625,0.1875t-0.75,0.1875q-0.375,0.0625-0.5,0.15625t-0.1875,0.3125t-0.25,0.46875q-0.1875,0.3125-0.4375,1.0625t-0.5625,1.0625q-0.25,0.375-0.25,1.0625z M362.13875,136.75q-0.75,0.375-0.75,0.5l0.75-0.5q-4.125,2.1875-8.5625,5.25q8.0625-4.5625,9.3125-5.375l-0.25,0q-0.375,0-0.5,0.125z M356.88875,142.75q-0.125,0.0625-1.125,0.75t-2.25,1.53125t-2.9375,1.9375t-3.15625,1.9375t-2.90625,1.5625t-2.25,0.84375t-1.125-0.25q-0.3125,0.25-0.46875,0.65625t-0.25,0.90625t-0.15625,0.75q0.9375-0.125,2-0.5t1.8125-0.75t2-1.15625t1.75-1.125t1.875-1.34375t1.5625-1.125q2.75-1.875,7.65625-5.4375t6.65625-4.8125q-1.0625,0.6875-4.09375,2.59375t-4.59375,3.03125z M376.57625,136.75l-0.5,0.25l0.125,0l0.5-0.125l-0.125-0.125q-4.9375,2.375-12,7.375q0.375,0.25,1,0.25q0.8125,0,2.0625-0.875q0.5625-0.375,1.90625-1.09375t1.90625-1.09375q0.6875-0.4375,3.28125-2.03125t3.90625-2.53125l-0.25,0q-0.1875,0-0.5625,0.0625t-0.5625,0.0625q-0.4375,0-0.6875-0.125z M393.63875,143.25l-1.1875,1q0.3125-0.25,1.1875-1q-0.3125-0.0625-1.15625,0.46875t-0.90625,0.53125q-3.25,1.9375-4.375,2.5625q-0.4375,0.25-1.8125,1.1875t-2.40625,1.40625t-1.90625,0.40625q0.125,0.5,0.78125,1.375t0.78125,1.125q4.4375-3,11-9.0625z M395.51375,147.125q-1,0.375-1,0.625l0.125,0q0.375,0,0.875-0.625q-0.875,0.25-1.71875,0.6875t-2,1.15625t-1.65625,0.96875q-0.625,0.375-1.96875,1.1875t-1.96875,1.1875q-0.25,0.25-1,0.65625t-1.15625,0.78125t-0.40625,0.875l0,0.25q1.8125,6.375,1.8125,9.75q5.6875-4.25,10.1875-8.0625q2.1875-1.75,3.75-3.3125q0.25-0.25,0.25-0.375q0-0.0625-0.0625-0.1875t-0.15625-0.28125t-0.15625-0.34375q-0.4375,0.25-4.25,2.53125t-5.875,3.40625q-2.625,1.75-3.4375,1.75q-0.25,0-0.375-0.125l0-0.125q0-0.6875,1.59375-2.5625t3.71875-4.03125t2.1875-2.21875q-0.6875,0.5-1.96875,1.375t-3.34375,2t-3,1.125q-0.5,0-0.625-0.3125q-0.125-0.1875,0.46875-0.6875t1.71875-1.15625t2.15625-1.21875t2.09375-1.09375t1.25-0.65625q0.25-0.1875,1.25-0.8125t1.625-1.125t1.0625-1z M385.45125,168.625q0-0.125,0.96875-0.8125t2.15625-1.53125t1.3125-0.90625q-0.4375,0.25-1.34375,0.78125t-1.34375,0.78125q-0.125,0.0625-0.40625,0.21875t-0.375,0.21875t-0.3125,0.21875t-0.3125,0.28125t-0.1875,0.3125t-0.15625,0.4375z M382.63875,182.1875l0,0.125l0-0.125q-0.125,0.25-0.4375,0.53125t-0.375,0.46875q0.9375-0.625,3.75-2.53125t4.15625-2.875t3.5625-2.59375t3.9375-3.125t3.28125-3.0625q-0.625,0.375-5.03125,3.40625t-6.84375,4.40625q-2.1875,1.625-3.625,1.625q-0.8125,0-1-0.875l0-0.375q0-1.75,3.0625-4.375q1-1,2.0625-1.90625t2.5625-2.03125t2.15625-1.625t2.65625-1.90625t2.25-1.59375q-0.8125,0.3125-1.65625,0.71875t-1.78125,1t-1.5,0.9375t-1.71875,1.15625t-1.53125,1.0625q-0.75,0.5625-2.3125,1.65625t-2.3125,1.65625q-0.375,0.25-0.5625,0.53125t-0.3125,0.5625t-0.3125,0.53125q-0.5,0.75-0.71875,2.4375t-0.28125,1.9375q-0.125,0.25-0.125,1q0,0.6875-0.125,1.0625q0,0.3125-0.40625,1.125t-0.46875,1.0625z M402.45125,168.625l-0.25,0.375l0.25-0.375q-1.0625,1.6875-4.75,4.4375q0.1875-0.0625,1.8125-1t2.5625-1.3125q0.5-0.1875,0.5-1.125q0-0.1875-0.0625-0.53125t-0.0625-0.46875z M401.82625,158.75q0,0.0625-9.875,6.625q-0.1875,0.125-2.0625,1.3125t-3.15625,2.25t-1.15625,1.6875q0.5-0.3125,2.84375-2.0625t3.34375-2.4375t2.90625-1.78125t3.53125-1.78125q1-0.5,2.0625-0.5l0.375,0q0.9375,0.1875,0.9375,0.625q0,0.25-0.25,0.53125t-0.6875,0.625t-0.5,0.40625q-6.875,4.6875-11.75,9.0625l-1,0.9375q-1.0625,0.875-1.5625,1.5625t-0.625,1.375q0.75-0.1875,1.46875-0.53125t1.8125-1.0625t1.28125-0.84375q2.625-1.625,6.8125-4.625q0.125-0.0625,1.53125-1.15625t2.53125-1.6875t1.6875-0.34375q0-1.375,0.25-4.5q-0.75-1.75-0.75-3.6875z M401.20125,157.1875l0.125,0l0-0.125z M392.70125,160.5625q0.5625-0.3125,6.0625-3.5q0.125-0.0625,0.625-0.28125t0.90625-0.4375t0.46875-0.40625q-0.0625-0.1875-0.25-0.8125t-0.25-1q-2.4375,2.3125-7.5625,6.4375z M389.26375,142.75l-0.75,0.5q0.25-0.125,0.75-0.5q-1.125,0.625-4.53125,2.4375t-5.21875,2.9375q0.5,0.5,0.8125,0.5q0.1875,0,0.75-0.375q1.8125-1.125,2.9375-1.9375q2.75-1.6875,5.25-3.5625z M385.57625,142.375q0.3125-0.25,1-0.71875t1-0.71875q-6.625,4-9.4375,5.625q0.25,0.1875,1.8125-0.71875t3.5625-2.15625t2.0625-1.3125z M376.07625,144.5625q0.5-0.5,1.4375-1.40625t1.6875-1.65625t1.375-1.4375q-3.25,2.375-5.5,3.5625q0.1875,0.125,0.5,0.46875t0.5,0.46875z M357.38875,151.6875l0,0.125l0-0.125z M361.13875,146.6875l-1.125,0.6875q-0.625,0.4375-0.6875,0.5q-2,1.4375-2.5625,1.75q-4.5,3.3125-5.125,3.75q-4,2.875-8.0625,5.625q1.8125-1.125,5.3125-3.375t5.3125-3.4375q0.375-0.25,2.375-1.4375t3-1.875q0.25-0.125,0.25-0.625q0-0.625,0.125-0.75q0.125-0.0625,0.625-0.21875t0.5625-0.59375z M354.82625,153.25l-3.3125,2.1875l3.3125-2.1875q-1.8125,1.1875-5.40625,3.4375t-5.34375,3.4375q-0.75,0.4375-2.09375,1.34375t-2.09375,1.34375q-0.125,0.125-0.65625,0.40625t-0.90625,0.59375t-0.5,0.5625q0.5625-0.1875,1.09375-0.5t1.15625-0.78125t0.9375-0.65625q1-0.625,2.96875-1.90625t2.90625-1.90625q7.6875-5.1875,7.9375-5.375z M337.95125,162.5625l0.375-0.125l-0.375,0.125q0.4375-0.25,1.28125-0.75t1.28125-0.75q-2.5,1.25-2.5625,1.5z M354.57625,169l-0.125,0l0.125,0q-0.25,0.125-0.5,0.375q0.0625,0.0625,0.625,1.125q0-0.25-0.0625-0.75t-0.0625-0.75z M354.70125,170.875l0,0.3125l0-0.3125q-0.0625,0.4375-0.4375,0.96875t-0.71875,0.84375t-1,0.8125t-0.78125,0.625q0.25-0.125,3.3125-1.8125q-0.0625-0.25-0.1875-0.71875t-0.1875-0.71875z M354.70125,164.75l0-0.5q-2,1.5625-5.9375,4.78125t-5.9375,4.84375q3.3125-1.875,8.1875-5.125q0.1875-0.125,3.3125-2.1875q0-1.25,0.375-1.8125z M355.32625,157.875q-2.3125,1.9375-6.90625,5.8125t-6.90625,5.8125q1.4375-0.875,4.46875-2.59375t4.53125-2.65625q0.75-0.375,2.21875-1.21875t2.21875-1.21875q0.5-0.3125,0.5-2.0625q0-0.4375-0.0625-1.09375t-0.0625-0.78125z M353.01375,171q-3.0625,2.0625-9.1875,5.9375q-0.5625,0.3125-2.03125,1.3125t-2.34375,1.5q-0.125,0-0.125,0.25l0.8125,1.25q6.6875-4.6875,8.6875-6.25q0.5-0.4375,1.53125-1.28125t1.53125-1.28125q1.3125-1.3125,1.3125-1.4375l-0.1875,0z M342.57625,185.875l0.5-0.375l-0.5,0.375q0.875-0.8125,1.9375-1.53125t2.625-1.59375t2.1875-1.25q-0.6875,0.4375-7.0625,3.875q0.1875,0.375,0.3125,0.5z M341.76375,181.8125q2.3125-1.25,7.1875-4.125q0.1875-0.125,1.9375-1.03125t3.15625-1.78125t1.28125-1.1875q-1.5625,0.75-7.125,4q-0.5,0.3125-1.59375,0.9375t-1.78125,1.03125t-1.5625,1t-1.5,1.15625z M358.01375,172.5625q0.0625,0.1875,0.5625,0.625t0.5,0.8125t-0.25,0.75q0.375,0.1875,0.375,0.625q0,0.1875-0.125,0.75t-0.125,0.8125l0,0.125q0.75-0.375,1-0.375q0.375,0,0.5,0.25l0.125,0.25q0,0.25-0.1875,0.4375t-0.5,0.4375t-0.4375,0.375q1.125-0.1875,1.125,0.5q0,0.25-0.1875,0.84375t-0.1875,0.84375q0,0.0625,0.0625,0.125t0.0625,0.125q0.1875,0.1875,0.625,1.0625q0.5,0.5,1.34375,1.78125t1.34375,1.78125q0.375,0.1875,0.96875,0.65625t1.09375,0.75t1.0625,0.28125q1.25,0,1.75,0.125q0.25,0.125,0.5,0.125q0.1875,0,0.625-0.125t0.6875-0.125l0.25,0q0.375,0,1.0625,0.125t1,0.125q0.9375,0,1.25-1.3125q0.3125-1.125,1.4375-1.125q0.125,0,1.625,0.375q0-0.0625-0.0625-0.25t-0.0625-0.25q0-1.5,2.3125-3.0625q0-0.5625,0.40625-1.28125t0.78125-1.03125q0.6875-1.9375,0.875-4.375q-0.5,0.25-0.625,0.25q-0.75,0-0.75-0.875l0-0.25q0.4375-1.25,2.375-2.9375q0-0.4375,0.1875-1.375t0.25-1.1875q-0.125-0.625-0.125-2.0625l0-0.75q-0.3125-1.25-0.3125-2.1875q0-0.375,0.0625-0.9375t0.0625-0.625q0-0.375-0.25-1.21875t-0.25-1.21875q-0.25-0.625-0.5-2.03125t-0.375-1.90625q-0.125,0.0625-0.46875,0.375t-0.59375,0.5t-0.59375,0.3125t-0.53125,0.0625q-0.5-0.1875-0.5-0.75q0-0.375,0.125-0.625q0.125-0.1875,0.65625-0.59375t0.90625-0.75t0.25-0.59375q-0.625-0.875-1.0625-1.6875q-0.8125-0.8125-1-1.375q-0.5-0.875-1-0.875t-1.0625,0.375q-0.25,0.125-0.625,0.125q-0.8125,0-1.1875-0.8125q0-0.0625-0.0625-0.125t-0.0625-0.125q0-0.25,0.25-0.46875t0.6875-0.40625t0.5-0.25q-0.1875-0.125-1.03125,0.375t-1.28125,0.5t-0.625-0.375q0-0.0625-0.0625-0.125t-0.0625-0.125q0-0.1875,0.1875-0.5t0.40625-0.5t0.53125-0.46875t0.375-0.34375q-0.4375-0.4375-1.84375-0.53125t-1.71875-0.21875q-1,0.25-2.9375,1.28125t-3.0625,1.28125q-0.3125,0.3125-0.90625,0.6875t-0.78125,0.75q-0.125,0.375-0.875,1.125q-0.1875,0.1875-0.65625,0.4375t-0.65625,0.8125q-0.125,0.3125-0.34375,1.09375t-0.46875,1.40625t-0.5625,1q-0.75,3.0625-0.9375,4.3125q0.5625,0,0.5625,0.375q0,0.3125-0.34375,0.90625t-0.34375,0.65625q0,1.3125-0.25,1.8125q-0.75,2.5-0.75,4.4375q0,1.625,0.5,2.8125q0.25-0.25,0.9375-0.25q0.625,0,0.625,0.5625l0,0.25q-0.125,0.25-0.65625,0.5t-0.53125,0.5z M358.01375,182.5625l-0.125,0.125l0.125-0.125q-0.75,0.75-1.25,1.125l1.5-0.75q-0.0625-0.0625-0.125-0.1875t-0.125-0.1875z M389.13875,156.5625q3.1875-1.9375,8.5625-5q0.8125-0.5,0.8125-0.75q0-0.125-0.4375-1.4375q-0.0625-0.125-0.375-1.3125t-0.75-1.5q0.0625,0.4375-0.0625,0.875t-0.46875,0.9375t-0.5625,0.8125t-0.75,0.875t-0.59375,0.625q-0.875,0.9375-2.65625,2.9375t-2.71875,2.9375z M390.95125,147.25q1.25-0.6875,1.25-0.9375q-0.5,0.3125-1.25,0.9375q0.625-0.3125,2.03125-1.15625t2.28125-1.28125q-0.5625-0.5625-0.625-0.5625q-0.1875,0-0.875,0.6875q-0.4375,0.375-1.40625,1.15625t-1.40625,1.15625z M386.82625,139q-0.3125,0-1.375-0.28125t-1.3125-0.46875q-0.125,0-0.28125,0.1875t-0.34375,0.4375t-0.25,0.3125q-0.8125,0.75-2.28125,2.1875t-2.21875,2.125q-0.0625,0.0625-0.84375,1t-0.78125,1.0625t0.125,0.125l0.5-0.25q5.625-3.3125,9.8125-6q-0.125-0.125-0.75-0.4375z M372.88875,136.0625q-0.25,0-0.5-0.0625l-0.25-0.0625l-0.5625,0.5625q-0.5625,0.8125-1.375,1.375q-1.75,1.75-4.375,3.4375q-3.4375,2.6875-10.75,7.4375q-1.875,1.1875-5.53125,3.625t-5.46875,3.6875q-0.25,0.1875-1.96875,1.21875t-2.90625,2t-1.125,1.65625q3-1.5625,5.90625-3.46875t7.34375-5.21875t5.5625-4.125q12.4375-8.9375,17.6875-11.8125q-0.25,0-0.8125-0.125t-0.875-0.125z M358.26375,137.5l-0.5,0.375q0.125-0.125,0.5-0.375q-0.125,0-0.28125-0.0625t-0.21875-0.0625q-0.3125,0-0.53125,0.125t-0.5,0.40625t-0.59375,0.46875q-1.3125,0.9375-2.1875,1.8125q0.6875-0.4375,2.125-1.34375t2.1875-1.34375z M344.45125,145.3125l-0.25,0.125q0.25,0,0.25-0.125q-0.3125,0.0625-0.78125,0.25t-0.59375,0.25q0.25,0.25,0.25,0.75l0,0.375q0.375-0.25,1.8125-1.375q-0.4375,0-0.6875-0.25z M347.63875,160.9375l-1.75,1.25l1.75-1.25q-5,3.6875-8.6875,6q-0.875,0.5-1.03125,0.6875t-0.21875,1q0.125,0.375,0.125,1.125l0,1.25q7.3125-6.1875,9.4375-7.875q1-0.9375,3.0625-2.625t3.125-2.625q2.125-1.5,2.6875-2.1875q-5.3125,2.9375-8.5,5.25z M346.88875,191q0-0.125,0.375-0.5625t0.8125-0.84375t0.9375-0.875t0.5625-0.53125q0.625-0.5,1.875-1.53125t1.75-1.40625q1.5-1.125,2.9375-2.5625q0.125-0.125,0.46875-0.40625t0.5-0.46875t0.15625-0.4375t-0.125-0.375q-0.5-0.75-12.6875,7.8125q0.3125,0.25,1.09375,1t1.34375,1.1875z M347.38875,191.375l0.25,0l-0.25,0q0.375,0.125,0.6875,0.25l0.46875,0.1875t0.28125,0.0625q0.4375,0,1.375-0.625q2.75-1.875,4.375-3.1875q3.1875-2.5,3.5625-2.8125q0.125-0.125,0.375-0.3125t0.40625-0.3125t0.15625-0.3125q0-0.25-0.125-0.375q-2.3125,1.1875-8.0625,5.25l-0.625,0.5625q-0.625,0.5-1,0.78125t-0.9375,0.59375t-0.9375,0.25z M355.45125,195.625l0.125,0l-0.125,0q0.125,0,0.46875,0.15625t0.65625,0.28125t0.3125,0.0625q0.4375-0.5625,0.875-1.6875q1.375-2.0625,2.1875-3.6875q-1,0.6875-2.96875,2.0625t-3.03125,2.125q0.125,0.0625,0.65625,0.25t0.84375,0.4375z M362.26375,197.125l-0.125,0l0.125,0q0.375,0,1.3125,0.25t1,0.25q0.1875,0.0625,0.40625,0.1875t0.34375,0.125q0.1875,0,0.625-0.8125q0.75-1.75,4.375-6.25q-0.3125-0.125-1.5625,0.75q-0.5625,0.375-1.78125,1.09375t-1.78125,1.09375q-0.9375,0.4375-5.125,2.9375q0.25,0.125,1,0.15625t1.1875,0.21875z M376.82625,197.5l-0.125,0l0.125,0q1.0625-0.8125,1.4375-1.25q-0.375,0.25-1.15625,0.6875t-1.15625,0.6875q0.1875,0,0.40625-0.0625t0.46875-0.0625z M404.38875,176.9375l0.25-0.25q-0.25,0-0.25,0.25z"/><path fill="#" d=""/></svg>
