<?xml version="1.0"?>
<svg version="1.1" xmlns="http://www.w3.org/2000/svg" width="400px" height="200px" style=""><path fill="white" d="M147.12,119.2l0-2.72l2.4-0.96l0-15.04l-2.4-0.96l0-2.72l7.68-0.16l8.64,14.784l0-10.944l-2.336-0.96l0-2.72l9.12-0.16l0,2.88l-2.4,0.96l0,18.72l-5.344,0l-8.576-14.496l0,10.816l2.496,0.96l0,2.72l-9.28,0z M176.51232,96.64c0-1.824,1.312-2.88,2.752-2.88c1.664,0,2.688,0.864,2.688,2.88c0,1.888-1.376,2.912-2.688,2.912c-1.728,0-2.752-1.024-2.752-2.912z M181.88832,115.84l2.24,0.8l0,2.56l-9.6,0l0-2.56l2.56-0.8l0-10.4l-2.56-0.8l0-2.56l7.36-0.16l0,13.92z M195.31264,108.352l2.112,0l2.176-3.264l-1.408-0.448l0-2.56l8.256-0.16l0,2.72l-2.24,0.416l-2.976,4.192l3.584,6.624l2.432,0.768l0,2.56l-5.92,0l-3.968-7.808l-2.048,0l0,4.448l1.76,0.8l0,2.56l-9.12,0l0-2.56l2.56-0.8l0-17.984l-2.56-0.64l0-2.56l7.36-0.256l0,13.952z M219.55296,101.6c5.184,0,8.064,3.136,8.064,8.64c0,5.76-3.36,9.28-8.544,9.28c-5.216,0-8.16-2.72-8.16-8.8c0-5.76,3.424-9.12,8.64-9.12z M219.39296,105.44c-2.336,0-3.52,1.28-3.52,5.12c0,3.52,1.024,5.12,3.36,5.12c2.304,0,3.424-1.44,3.424-5.28c0-3.264-0.96-4.96-3.264-4.96z"/><path fill="#" d=""/></svg>
